<svg id="dummies" xmlns="http://www.w3.org/2000/svg" width="188.457" height="417.092" viewBox="0 0 188.457 417.092">
  <ellipse id="Ellipse_51" data-name="Ellipse 51" cx="94.229" cy="22.724" rx="94.229" ry="22.724" transform="translate(0 371.645)" fill="#bdb1c9" opacity="0.8" style="mix-blend-mode: multiply;isolation: isolate"/>
  <g id="Group_53" data-name="Group 53" transform="translate(2.444)">
    <path id="Path_208" data-name="Path 208" d="M796.7,2991.251c-.232.658.287,8.779-9.211,11.193s-16.218,3.073-17.376,6.146,0,3.073,0,3.073,29.19,0,34.982-1.756c1.853-2.853,1.158-18.656,1.158-18.656Z" transform="translate(-734.467 -2617)" fill="#594a42"/>
    <path id="Path_209" data-name="Path 209" d="M853.681,2991.151c-.082.66,2.281,8.738-6.668,11.323s-15.515,3.369-15.975,6.451.7,3.06.7,3.06,29.185-.555,34.577-2.414c1.205-2.877-3.079-18.6-3.079-18.6Z" transform="translate(-731.062 -2617)" fill="#594a42"/>
    <path id="Path_210" data-name="Path 210" d="M787.338,2796.5s-6.127,102.949-4.128,123.157,11.327,73.885,11.327,73.885h12.669l-3.332-77.042s9.993-51.783,14.328-60.624c8.335,15.787,13.73,64.164,13.73,64.164l22.6,73.5H869.2s-16-74.516-15.332-76.411,7.772-79.306-9.778-116.064C825.87,2793.987,787.338,2796.5,787.338,2796.5Z" transform="translate(-733.734 -2617)" fill="#9d2e24"/>
    <path id="Path_211" data-name="Path 211" d="M786,2817.172c8.49,3.516,31.13,12.4,44.188,12.817,13.366.43,22.083,24.092,25.394,39.951-.432-22.177-2.831-47.566-10.114-65.34-13.7,1.114-37.333,3.172-41.792,4.458-6.352,1.831-13.532-9.681-15.189-8.635-.347.219-.932.483-1.608.865C786.675,2804.927,786.365,2810.441,786,2817.172Z" transform="translate(-733.556 -2617)" fill="#9d2e24" opacity="0.5" style="mix-blend-mode: multiply;isolation: isolate"/>
    <path id="Path_212" data-name="Path 212" d="M887.221,2816.017s-4.269,7.662-8.66,11.341,2.2,2.08,5.91-1.92c1.52-1.44,2.027,4.64.338,6.559s-5.91,4.32-6.417,4.8,5.068-.537,8.445-2.617c-1.52,2.72-7.6,5.5-7.094,6.456s7.261.961,12.5-3.2,2.7-18.877,2.363-20.637S887.221,2816.017,887.221,2816.017Z" transform="translate(-728.498 -2617)" fill="#ffbba6"/>
    <path id="Path_213" data-name="Path 213" d="M776.057,2643.8s11-2.188,16.172-3.052-2.927-1.927-7.857-2.877c.346-2.82,8.592-10.734,11.48-13.384s-3.2-.508-6.886,2.613a29.743,29.743,0,0,1-3.493,2.9s5.657-10.667,5.041-12.6-11.41,3.618-14.3,6.268-5.656,14.851-5.656,14.851Z" transform="translate(-734.414 -2617)" fill="#ffbba6"/>
    <path id="Path_214" data-name="Path 214" d="M902.516,2750.38a45.23,45.23,0,0,0-1.912-5.341,38.385,38.385,0,0,0-3.3-5.616,81.756,81.756,0,0,0-6.279-7.78c-4.169-4.665-8.384-8.851-12.657-12.947-4.011-3.8-8.016-7.467-12.083-11.071-.082-.073-.172-.131-.254-.2-7.163-10.4-42.948-9.23-42.948-9.23s-30.141,2.851-31.543,2.667c-5.042-.661-10.06-1.477-14.821-2.456-.029-.286-13.72-3.747-14.7-4.051a7.182,7.182,0,0,1-3.2-1.618c-1.957-2.067.634-7.644,1.422-9.779a115.382,115.382,0,0,1,5.782-13.334,265.924,265.924,0,0,1,15.343-26.288l-9.746-6.952a285.162,285.162,0,0,0-20.431,25.173,135.175,135.175,0,0,0-8.941,14.138c-2.584,5.252-5.548,10.228-5.925,18.96a18.853,18.853,0,0,0,1.673,7.89,19.915,19.915,0,0,0,2.636,3.992l2.3,2.424a47.835,47.835,0,0,0,8.893,6.466,119.087,119.087,0,0,0,16.713,7.661c4.258,1.6,8.446,2.99,12.641,4.3.652,13.162,4.34,29.727,5.219,43.878,1.5,24.122,1.636,42.595,1.636,42.595s37.494,11.378,65.951.736c1.381-14.823,4.691-48.406,8.761-71.253,3.222,2.12,13.246,9.489,14.622,10.76,1,.812.815.924,1.32,1.289a21.052,21.052,0,0,1,1.329,2.244c3.666,7.928,5.927,18.928,7.718,29.3,1.8,10.536,3.111,21.382,4.085,32.074l12.2.087c.952-11.157,1.57-22.17,1.651-33.427C905.6,2774.31,905.726,2763.354,902.516,2750.38ZM758.3,2693.657a4.657,4.657,0,0,1-.062-.708c.05.1.146.223.129.29C758.617,2693.777,758.369,2694.075,758.3,2693.657Z" transform="translate(-736.315 -2617)" fill="#b38ff7"/>
    <path id="Path_215" data-name="Path 215" d="M827.024,2697.3a67.576,67.576,0,0,1-.692-10.876l-9.906,1.39s.184,8.516-5.136,12.165c-1.6,6.767,6.278,8.572,13.927,2.412A5.248,5.248,0,0,0,827.024,2697.3Z" transform="translate(-732.164 -2617)" fill="#ffbba6"/>
    <path id="Path_216" data-name="Path 216" d="M818.695,2705.7s-1.254-3.57,1.22-5.244,6-3.181,6.8-5.357c1.682,1.339,2.92,3.57,2.742,5.3s-7.951,8.929-7.951,8.929Z" transform="translate(-731.759 -2617)" fill="#8c67e8"/>
    <path id="Path_217" data-name="Path 217" d="M814.315,2696.779s-1.6,3.27.768,4.9c.646.918,1.389,5.607-1.3,7.136,0,0-4.407-3.874-4.944-7.645C808.52,2698.418,812.147,2696.363,814.315,2696.779Z" transform="translate(-732.289 -2617)" fill="#8c67e8"/>
    <ellipse id="Ellipse_52" data-name="Ellipse 52" cx="2.311" cy="2.189" rx="2.311" ry="2.189" transform="translate(82.365 98.959)" fill="#8c67e8"/>
    <ellipse id="Ellipse_53" data-name="Ellipse 53" cx="2.311" cy="2.189" rx="2.311" ry="2.189" transform="translate(81.093 112.952)" fill="#8c67e8"/>
    <path id="Path_218" data-name="Path 218" d="M783.194,2716.842c-.463-2.63-27.529,1.208-40.485-14.628-2.988-4.412-4.374-12.66-4.164-18.57a34.291,34.291,0,0,0-2.226,11.009,18.853,18.853,0,0,0,1.673,7.89,19.915,19.915,0,0,0,2.636,3.992l2.3,2.424a47.835,47.835,0,0,0,8.893,6.466,119.087,119.087,0,0,0,16.713,7.661c4.258,1.6,8.446,2.99,12.641,4.3C781.174,2727.389,783.656,2719.472,783.194,2716.842Z" transform="translate(-736.315 -2617)" fill="#b38ff7" opacity="0.5" style="mix-blend-mode: multiply;isolation: isolate"/>
    <path id="Path_219" data-name="Path 219" d="M816.185,2687.81a20.866,20.866,0,0,1-.784,5.5,20.075,20.075,0,0,0,11.013,1.224,81.092,81.092,0,0,1-.323-8.115Z" transform="translate(-731.924 -2617)" fill="#ffbba6" opacity="0.5" style="mix-blend-mode: multiply;isolation: isolate"/>
    <path id="Path_220" data-name="Path 220" d="M846.026,2662.526a16.135,16.135,0,0,0-3.515-6,18.522,18.522,0,0,0-14.984-5.754c-10.685,1.206-16.028,9.4-19.59,17.836s-6.09,13.8-1.526,17.836c4.735,4.187,16.215,3.314,25.628.663C842.726,2684.1,849.156,2672.251,846.026,2662.526Z" transform="translate(-732.56 -2617)" fill="#ffbba6"/>
    <path id="Path_221" data-name="Path 221" d="M813.043,2650.715s.217,10.509,19.192,16.914c1.527,2.686-1.827,8.677-7.348,10.537s3.507,2.479,7.717,0,3.641,4.37,0,4.872-8.109,3.41-7.211,5.475,8.587,2.67,17.529-4.355,12.866-18.6,11.121-24.588c-1.351-4.642-6.292-8.251-10.3-10.809-4.809-3.072-10.449-4.636-15.169-7.877-.948-.65-3.232-2.079-3.033.043.368,3.926-1.377,1.494-3.559.255s-4.362-1.446-3.707,1.446-.417,1.447-3.043.414S812.706,2647.132,813.043,2650.715Z" transform="translate(-732.064 -2617)" fill="#9d2e24"/>
    <path id="Path_222" data-name="Path 222" d="M849.241,2677.322c-5.336-.728-8.954-5.241-7.305-9.275,1.988-4.865-.331-4.551-12.156-6.591-10.224-1.764-15.4-13.656-16.617-16.85a20.745,20.745,0,0,0-.119,6.109s.217,10.508,19.192,16.914c1.526,2.686-1.827,8.677-7.347,10.537s3.506,2.479,7.717,0,3.641,4.37,0,4.871-8.109,3.411-7.211,5.476,8.587,2.67,17.529-4.355A30.971,30.971,0,0,0,849.241,2677.322Z" transform="translate(-732.064 -2617)" fill="#9d2e24" opacity="0.5" style="mix-blend-mode: multiply;isolation: isolate"/>
    <path id="Path_223" data-name="Path 223" d="M883.532,2760.228c-.872-3.306,2.836-7.026,2.618-8.68s-5.017.62-7.2-1.86-16.579-21.493-17.234-19.736c0,0-6.468,4.876-8,15.448s-4.814,36.07-9.628,40.216-28.882,8.875-17.285,10.45,18.6,4.268,16.848,7.585c-1.7,3.218-8.329,15.215-58.692,8.164.019,1.319.025,2.047.025,2.047s37.493,11.378,65.95.736c1.381-14.823,4.692-48.406,8.761-71.253.239.157.52.348.826.557l.249.171c.239.165.492.34.76.528l.321.225q.477.335,1,.705l.148.1c.434.309.885.632,1.348.966h0c4.082,2.939,9.036,6.638,9.974,7.5,1,.812.815.924,1.32,1.289a21.225,21.225,0,0,1,1.33,2.244c3.666,7.928,5.926,18.928,7.717,29.3,1.554,9.089,2.686,18.4,3.61,27.653.01-.077.027-.133.036-.214C889.69,2801.357,884.405,2763.535,883.532,2760.228Z" transform="translate(-733.614 -2617)" fill="#b38ff7" opacity="0.5" style="mix-blend-mode: multiply;isolation: isolate"/>
    <path id="Path_224" data-name="Path 224" d="M800.371,2901.673c-1.085,10.63-6.877,13.373-7.6,14.4s6.154,2.744,7.6,7.544,5.156,43.87,5.16,43.916l-2.207-51.037s9.993-51.784,14.328-60.624a97.3,97.3,0,0,1-7.87-9.41C807.248,2842.692,801.457,2891.043,800.371,2901.673Z" transform="translate(-733.183 -2617)" fill="#9d2e24" opacity="0.5" style="mix-blend-mode: multiply;isolation: isolate"/>
  </g>
</svg>
