<svg id="dummies2" xmlns="http://www.w3.org/2000/svg" width="351.379" height="363" viewBox="0 0 351.379 363">
  <g id="Group_63" data-name="Group 63" transform="translate(0 226.202)">
    <path id="Path_234" data-name="Path 234" d="M1280.261,2076.2H976.332c-12.887,0-23.332,9.9-23.332,22.1v30.85h350.594v-30.85C1303.594,2086.1,1293.147,2076.2,1280.261,2076.2Z" transform="translate(-953 -2076.202)" fill="#504658"/>
    <path id="Rectangle_25" data-name="Rectangle 25" d="M0,0H351a0,0,0,0,1,0,0V25.786A72.214,72.214,0,0,1,278.786,98H72.214A72.214,72.214,0,0,1,0,25.786V0A0,0,0,0,1,0,0Z" transform="translate(0.379 38.798)" fill="#ffb5b5"/>
    <g id="Group_62" data-name="Group 62" transform="translate(93.95 69.116)">
      <g id="Group_61" data-name="Group 61">
        <rect id="Rectangle_26" data-name="Rectangle 26" width="162.543" height="10.007" fill="#ce2e6c"/>
        <rect id="Rectangle_27" data-name="Rectangle 27" width="162.543" height="10.007" transform="translate(0 22.606)" fill="#ce2e6c"/>
      </g>
    </g>
  </g>
  <g id="Group_67" data-name="Group 67" transform="translate(61.157)">
    <path id="Path_235" data-name="Path 235" d="M1188.27,1949.824c-11.976-20.522-63.273-18.65-63.273-18.65s-51.3-1.872-63.276,18.65c-8.579,14.705,8.1,65.413,12.394,96.852,10.965,2.029,38.36,5.071,50.882,5.071s39.915-3.042,50.877-5.071C1180.164,2015.237,1196.849,1964.529,1188.27,1949.824Z" transform="translate(-1008.254 -1850)" fill="#f16680"/>
    <path id="Path_236" data-name="Path 236" d="M1075.843,1972.342c-4.885,1.77-9.227,9.979-12.853,20.135,3.63,18.317,8.795,38.621,10.921,54.2,10.965,2.029,38.36,5.071,50.882,5.071s39.915-3.042,50.877-5.071c1.242-9.1,3.527-19.823,5.932-30.811-5.162-3.7-17.411-8.309-46.17-13.72C1083.261,1992.329,1075.843,1972.342,1075.843,1972.342Z" transform="translate(-1008.049 -1850)" fill="#f16680" opacity="0.5" style="mix-blend-mode: multiply;isolation: isolate"/>
    <g id="Group_64" data-name="Group 64" transform="translate(163.388 93.6)">
      <path id="Path_237" data-name="Path 237" d="M1176.754,1943.6s20.313,16.524,29.277,60.05c7.759,37.666-23.738,41.193-36.066,45.208-8.476,1.46-1.6-18.831-1.6-18.831l16.413-10.38s-13.059-34.529-16.913-47.3S1176.754,1943.6,1176.754,1943.6Z" transform="translate(-1165.733 -1943.6)" fill="#f16680"/>
      <path id="Path_238" data-name="Path 238" d="M1189.034,2018.07c-3.852-.5-9.516-12.451-9.529-12.477,2.945,7.974,5.243,14.054,5.243,14.054l-16.414,10.38a65.241,65.241,0,0,0-2.059,7.995c17.9-4.082,23.129-14.474,24.862-15.012C1192.889,2022.465,1192.889,2018.572,1189.034,2018.07Z" transform="translate(-1165.703 -1943.6)" fill="#f16680" opacity="0.5" style="mix-blend-mode: multiply;isolation: isolate"/>
    </g>
    <g id="Group_65" data-name="Group 65" transform="translate(28.524 93.6)">
      <path id="Path_239" data-name="Path 239" d="M1068.454,1943.6s-20.311,16.524-29.277,60.05c-7.758,37.666,23.739,41.193,36.066,45.208,8.476,1.46,1.6-18.831,1.6-18.831l-16.414-10.38s13.06-34.529,16.913-47.3S1068.454,1943.6,1068.454,1943.6Z" transform="translate(-1037.963 -1943.6)" fill="#f16680"/>
      <path id="Path_240" data-name="Path 240" d="M1055.358,2018.07c3.852-.5,9.516-12.451,9.529-12.477-2.945,7.974-5.244,14.054-5.244,14.054l16.414,10.38a65.216,65.216,0,0,1,2.059,7.995c-17.9-4.082-23.129-14.474-24.863-15.012C1051.5,2022.465,1051.5,2018.572,1055.358,2018.07Z" transform="translate(-1037.177 -1943.6)" fill="#f16680" opacity="0.5" style="mix-blend-mode: multiply;isolation: isolate"/>
    </g>
    <path id="Path_241" data-name="Path 241" d="M1199.994,2182.966s1.218,11.165,14.282,15.7,19.993,3.1,21.18,8.05,0,5.265,0,5.265-34.244,1.444-43.153,0-3.364-27.557-3.364-27.557Z" transform="translate(-1001.151 -1850)" fill="#594a42"/>
    <path id="Path_242" data-name="Path 242" d="M1046.93,2182.966s-1.218,11.165-14.282,15.7-19.993,3.1-21.18,8.05,0,5.265,0,5.265,34.245,1.444,43.152,0,3.365-27.557,3.365-27.557Z" transform="translate(-1010.94 -1850)" fill="#594a42"/>
    <path id="Path_243" data-name="Path 243" d="M1215.776,2080.6c-.618-12.142-8.8-22.746-20.8-27.038a206.1,206.1,0,0,0-24.212-6.888l-44.485-4.408-44.491,4.408a206.075,206.075,0,0,0-24.209,6.888c-12,4.292-20.181,14.9-20.8,27.037-1.524,29.91,1.875,84.654,2.993,106.445,6.811,4.743,19.319,3.162,19.319,3.162s11.328-40.94,11.816-77.837c3.405-23.192,18.311-32.153,55.374-32.153s51.965,8.961,55.37,32.153c.488,36.9,11.816,77.837,11.816,77.837s12.508,1.581,19.319-3.162C1213.9,2165.255,1217.3,2110.512,1215.776,2080.6Z" transform="translate(-1009.526 -1850)" fill="#877f7d"/>
    <path id="Path_244" data-name="Path 244" d="M1133.235,1930.341c-3.675-2.19-4.578-12.83-4.578-12.83s-9.331-1.834-11.8,0c.528,7.006-4.3,12.83-4.3,12.83-8.1,8.7,4.422,13.259,10.337,13.259s12.621-2.958,14-6.872S1133.235,1930.341,1133.235,1930.341Z" transform="translate(-1005.444 -1850)" fill="#ffbba6"/>
    <path id="Path_245" data-name="Path 245" d="M1116.544,1917.511a16.3,16.3,0,0,1-.912,6.444c4.438,2.147,10.594,4.647,16,5.149-2.6-3.532-3.289-11.593-3.289-11.593S1119.009,1915.677,1116.544,1917.511Z" transform="translate(-1005.127 -1850)" fill="#ffbba6" opacity="0.5" style="mix-blend-mode: multiply;isolation: isolate"/>
    <path id="Path_246" data-name="Path 246" d="M1146.922,1872.985c-9.29-15.627-38.129-15.718-47.47,0-4.085,6.875-2.662,16.692-.488,23.906,3,9.968,9.393,19.3,19.017,24.159a15.1,15.1,0,0,0,9.659.551c10-3.218,15.555-12.894,18.93-22.178,2.794-7.684,4.654-18.127.714-25.784C1147.17,1873.418,1147.05,1873.2,1146.922,1872.985Z" transform="translate(-1006.17 -1850)" fill="#ffbba6"/>
    <path id="Path_247" data-name="Path 247" d="M1143.411,1896.057s5.306-6.008,8.6-2.4-3.774,13.529-7.5,13.75S1140.117,1902.124,1143.411,1896.057Z" transform="translate(-1003.702 -1850)" fill="#ffbba6"/>
    <path id="Path_248" data-name="Path 248" d="M1100.816,1896.057s-5.307-6.008-8.6-2.4,3.775,13.529,7.5,13.75S1104.109,1902.124,1100.816,1896.057Z" transform="translate(-1006.474 -1850)" fill="#ffbba6"/>
    <path id="Path_249" data-name="Path 249" d="M1105,1880.009s33.22,14.877,48.3,8.281c9.572-4.67,13.632-23.616,9.862-27.059s-6.672-2.619-11.313-2.069-8.412-4.671-11.022-7.695-2.03-.824-7.253,1.651c-5.708,2.7-12.341.335-18.346,1.249-11.384,1.732-18.135,10.058-20.953,20a31.216,31.216,0,0,0-.68,15.005c.38,1.783,8.31,17.288,9.2,16.221C1107.4,1900.1,1107.451,1892.9,1105,1880.009Z" transform="translate(-1006.384 -1850)" fill="#594a42"/>
    <path id="Path_250" data-name="Path 250" d="M1139.559,1884.118s-3.838,17.14,1.891,21.528c4.3-7.012,7.163-13.8,7.163-20.039S1139.559,1884.118,1139.559,1884.118Z" transform="translate(-1003.868 -1850)" fill="#594a42"/>
    <path id="Path_251" data-name="Path 251" d="M1128.052,1903.4c-1.02-2.019-3.5-6.02-4.966-8.346a1.011,1.011,0,0,0-1.8.214c-1.086,3.421-2.965,10.046-1.361,10.382C1122.092,1906.1,1129.543,1906.348,1128.052,1903.4Z" transform="translate(-1004.923 -1850)" fill="#fc957a" opacity="0.5"/>
    <path id="Path_252" data-name="Path 252" d="M1153.29,1888.29c6.639-3.24,10.62-13.342,11.181-20.381-2.877,5.978-9.39,15.4-20.513,14.477-15.753-1.306-24.174-7.543-31.482-9.551s-12.544,2.055-13.242,9.614c-.4,4.3-3.395,4.546-6.1,3.778a28.242,28.242,0,0,0,.449,3.145c.379,1.783,8.31,17.288,9.2,16.221,4.6-5.5,4.653-12.7,2.2-25.584C1104.986,1880.009,1138.207,1894.886,1153.29,1888.29Z" transform="translate(-1006.376 -1850)" fill="#594a42" opacity="0.5" style="mix-blend-mode: multiply;isolation: isolate"/>
    <path id="Path_253" data-name="Path 253" d="M1194.1,2177.658c-4.2-5.306-4.2-50.781-5.508-64.423s-3.092-15.538,3.207-19.706-6.3-3.411-11.5-4.169-13.2-9.473-20.4-12.505-19.6-3.032-16.717-6.063,11.117-4.169,6.717-5.306-9.6-4.168-4.8-6.063,35.2-7.676,35.2-7.676c.8-.615,4.386-.541,5.006-1.274-8.3-2.462-14.7-3.8-14.7-3.8l-44.485-4.408-44.491,4.408s-6.409,1.337-14.717,3.8c.631.729,4.2.656,5,1.27,0,0,30.4,5.781,35.2,7.676s-.4,4.926-4.8,6.063,3.835,2.274,6.717,5.306-9.518,3.031-16.718,6.063-15.2,11.747-20.4,12.505-17.8,0-11.5,4.169,4.515,6.063,3.207,19.706-1.308,59.117-5.508,64.423c-2.785,3.517-11.274,3.707-18.783,4.1.1,1.908.2,3.709.279,5.292,6.811,4.743,19.319,3.162,19.319,3.162s11.328-40.94,11.816-77.837c3.405-23.192,18.311-32.153,55.374-32.153s51.964,8.961,55.37,32.153c.488,36.9,11.816,77.837,11.816,77.837s12.508,1.581,19.319-3.162c.081-1.582.177-3.383.28-5.291C1205.386,2181.365,1196.884,2181.178,1194.1,2177.658Z" transform="translate(-1009.363 -1850)" fill="#877f7d" opacity="0.5" style="mix-blend-mode: multiply;isolation: isolate"/>
    <g id="Group_66" data-name="Group 66" transform="translate(54.256 144.272)">
      <path id="Path_254" data-name="Path 254" d="M1176.966,2051.747H1072.689l-10.347-57.476h124.97Z" transform="translate(-1062.342 -1994.272)" fill="#ddc2bf"/>
      <path id="Path_255" data-name="Path 255" d="M1132.41,2026.309c-1.223,3.032-5.733,5.008-10.31,5.008s-9.087-1.976-10.312-5.008c-1.6-3.976,2.779-8.239,10.312-8.239S1134.016,2022.333,1132.41,2026.309Z" transform="translate(-1059.615 -1994.272)" fill="#fce2e0"/>
      <path id="Path_256" data-name="Path 256" d="M1072.611,2051.747h104.276l1.063-5.9c-54.214.592-94.949-27.155-114.19-43.253Z" transform="translate(-1062.263 -1994.272)" fill="#ddc2bf" opacity="0.5" style="mix-blend-mode: multiply;isolation: isolate"/>
    </g>
  </g>
</svg>
