<svg id="logo-hmif" xmlns="http://www.w3.org/2000/svg" width="123.341" height="125.053" viewBox="0 0 123.341 125.053">
  <defs>
    <style>
      .cls-1 {
        fill: #fff;
      }

      .cls-2 {
        fill: #da251d;
      }
    </style>
  </defs>
  <path id="Path_65" data-name="Path 65" d="M42.507,142.243c.237-2.223.429-4.454.721-6.669a61.512,61.512,0,0,1,4.791-16.658,57.452,57.452,0,0,1,7.39-12.411,59.218,59.218,0,0,1,6.431-7.075,91.538,91.538,0,0,1,8.953-7.279,63.729,63.729,0,0,1,7.082-3.943,36.23,36.23,0,0,1,8.925-3.4c2.356-.548,4.723-1.042,7.07-1.642,5.41-1.38,10.893-1.166,16.343-.709a93.989,93.989,0,0,1,10.577,1.877,16.4,16.4,0,0,1,3.368,1.16c3.609,1.612,7.3,3.044,10.757,5.01a62.7,62.7,0,0,1,9.059,6.407,59.9,59.9,0,0,1,10.58,11.75,62.539,62.539,0,0,1,11.224,39,57.371,57.371,0,0,1-3.513,18.047,70.346,70.346,0,0,1-4.948,10.66,89.448,89.448,0,0,1-7.473,10.5,42.859,42.859,0,0,1-5.856,5.608c-2.307,1.953-4.722,3.758-7.155,5.512a25.593,25.593,0,0,1-3.713,2.075c-1.656.816-3.355,1.524-5.023,2.311a55.786,55.786,0,0,1-9.957,3.281c-6.424,1.675-12.91,1.7-19.422,1.312a58.257,58.257,0,0,1-7.036-.848,37.747,37.747,0,0,1-5.751-1.566,77.278,77.278,0,0,1-8.332-3.3,57.75,57.75,0,0,1-8.127-4.756,67.125,67.125,0,0,1-9.868-8.563,62.31,62.31,0,0,1-7.961-10.424,59.858,59.858,0,0,1-7.921-20.671c-.505-2.809-.684-5.692-1.02-8.54a8.977,8.977,0,0,0-.2-.91Zm60.156,59.945c5.614-.207,9.724-.3,13.811-1.39a71.252,71.252,0,0,0,10.068-3.3,56.453,56.453,0,0,0,10.98-6.388,55.417,55.417,0,0,0,8.964-8.219,56.686,56.686,0,0,0,8.436-12.68,58.241,58.241,0,0,0-7.183-62.224,46.383,46.383,0,0,0-9.756-9.347,105.378,105.378,0,0,0-11.042-6.508,42.108,42.108,0,0,0-7.691-2.894,41,41,0,0,0-7.823-1.6c-5.247-.453-10.484-.7-15.755.357-3.9.779-7.78,1.435-11.465,3.1-2.4,1.085-4.789,2.187-7.161,3.345a37.705,37.705,0,0,0-9.3,6.469,81.137,81.137,0,0,0-7.118,7.177,55.384,55.384,0,0,0-8.938,15.217,58.172,58.172,0,0,0,10.933,60.463,52.57,52.57,0,0,0,11.53,9.677,56.738,56.738,0,0,0,8.74,4.536,59.555,59.555,0,0,0,10.363,3.189A84.506,84.506,0,0,0,102.663,202.188Z" transform="translate(-42.507 -82.111)"/>
  <path id="Path_66" data-name="Path 66" class="cls-1" d="M101.114,200.62a84.513,84.513,0,0,1-9.407-1.017,59.555,59.555,0,0,1-10.363-3.189,56.739,56.739,0,0,1-8.74-4.536,52.57,52.57,0,0,1-11.53-9.677A58.172,58.172,0,0,1,50.14,121.738a55.384,55.384,0,0,1,8.938-15.217A81.137,81.137,0,0,1,66.2,99.344a37.705,37.705,0,0,1,9.3-6.469c2.372-1.157,4.763-2.259,7.161-3.344,3.686-1.669,7.57-2.326,11.465-3.1,5.271-1.053,10.508-.81,15.755-.357a41,41,0,0,1,7.823,1.6,42.108,42.108,0,0,1,7.691,2.894,105.381,105.381,0,0,1,11.042,6.508,46.383,46.383,0,0,1,9.756,9.347,58.241,58.241,0,0,1,7.183,62.224,56.685,56.685,0,0,1-8.436,12.68,55.416,55.416,0,0,1-8.964,8.219,56.452,56.452,0,0,1-10.98,6.388,71.25,71.25,0,0,1-10.068,3.3C110.838,200.319,106.728,200.413,101.114,200.62Zm33.711-72.579.281-.147c-.825-1.655-1.6-3.347-2.482-4.961a19.439,19.439,0,0,0-13.074-9.848c-2.3-.556-4.667-.709-6.994-1.112-1.707-.3-3.388-.894-5.1-1.026A32.363,32.363,0,0,0,90,114.057a33.764,33.764,0,0,0-9.773,7.355,31.888,31.888,0,0,0-6.175,9.458,33.3,33.3,0,0,0-1.731,21,32.877,32.877,0,0,0,8.094,15.065c1.888,2,3.716,4.064,5.651,6.187l-5.176,4.43c.226.194.315.213.383.178,2.485-1.3,4.964-2.609,7.456-3.889a1.229,1.229,0,0,1,.914-.1c2.143.812,4.253,1.741,6.413,2.484a18.23,18.23,0,0,0,3.418.632,35.336,35.336,0,0,0,4.864.547,34.9,34.9,0,0,0,4.622-.563c.635-.085,1.269-.18,1.9-.3a31.579,31.579,0,0,0,11.032-4.553,29.813,29.813,0,0,0,6.762-5.782,32.914,32.914,0,0,0,6.814-12.258,33.418,33.418,0,0,0-.95-22.431c-.635-1.58-1.4-3.1-2.259-5ZM74.544,114.673a5.389,5.389,0,0,0,1.039-1.009,1.232,1.232,0,0,0,.017-1.039c-2.8-2.611-5.647-5.172-8.354-7.629l-2.685,2.372,4.552,7.116a62.269,62.269,0,0,1-6-2.944c-.478-.25-1.235-.65-1.5-.429a21.743,21.743,0,0,0-2.333,2.546c.944.839,1.725,1.508,2.482,2.212,1.91,1.777,3.827,3.545,5.7,5.371.612.6,1.036.731,1.5-.131a7.848,7.848,0,0,1,.707-.947l-6.228-5.808.14-.229,7.8,4.153,1.576-1.69-5.034-7.649.142-.168ZM58.117,127.4,56.9,132.106c-1.137-.232-2.187-.456-3.241-.659-1.643-.318-1.856-.091-1.783,1.809a18.049,18.049,0,0,0,2.193.9c2.806.751,5.625,1.441,8.44,2.151.589.148,1.026.045,1.114-.766.043-.393.168-.774.3-1.371L58.8,132.709l1.248-4.615,5.166,1.045L65.755,127,54.1,123.875l-.636,2.423ZM91.793,93.774c-.334-2.4-.61-1.989-1.953-1.6-1.868.537-3.743,1.055-5.584,1.7A1.472,1.472,0,0,0,83.7,95.1c1.01,3.618,2.1,7.207,3.193,10.864l2.3-.612-1.5-5.176c.91-.236,1.727-.414,2.526-.665.776-.243,1.531-.561,2.316-.852l-.646-2c-.639.305-1.215.551-1.767.848-2.285,1.223-3.058.849-3.778-1.861-.019-.075.032-.173.049-.253ZM73.712,99.833l6.575,10.074,2.038-1.3L75.593,98.326Zm54,78.928,1.425,3.981c-1.694-.472-2.516-3.634-4.825-1.508,1.022,1.5,2.039,2.97,3.042,4.458.448.663.863.627,1.351-.017l-2.269-3.421a19.007,19.007,0,0,1,2.76,2.121c.633.573,1.125.475,1.595-.206l-1.6-4.278.151-.075,2.585,3.655.855-.663c-.862-1.255-1.724-2.428-2.5-3.665C129.2,177.444,129.227,177.423,127.709,178.761Zm18.77-17.7c-1.133-.115-1.959-.145-2.767-.3-1.134-.212-1.995-.079-2,1.715l5.657,2.4.347-1.1-4.355-1.918c1.664.189,2.969.38,4.28.452.3.016.61-.381.917-.59a3.016,3.016,0,0,0-.531-.891c-.961-.738-1.963-1.409-2.949-2.105l.081-.212,4.094,1.6.189-1.118c-1.7-.661-3.349-1.259-4.969-1.947-.669-.285-1.066-.033-1.156.629a1.7,1.7,0,0,0,.393,1.259C144.482,159.647,145.357,160.218,146.479,161.057ZM98.77,96.29a2.9,2.9,0,0,0,2.665,2.952,3.027,3.027,0,0,0,2.729-2.906,3.157,3.157,0,0,0-2.693-2.8A2.887,2.887,0,0,0,98.77,96.29ZM59.8,144.146a2.619,2.619,0,0,0-2.683-2.68,2.737,2.737,0,0,0-2.675,2.744c.016,1.374,1.525,3,2.736,2.956A3.081,3.081,0,0,0,59.8,144.146Zm68.683-36.073,3.3-5.33-.957-.835c-.35.589-.635,1.118-.966,1.609a5.023,5.023,0,0,1-.645.665c-.247-.317-.625-.593-.711-.958a7.973,7.973,0,0,1-.164-2.008c.024-.95-.343-1.406-1.327-1.443l.206,3.214c-.305,0-.691-.131-.92.026a3.927,3.927,0,0,0-1.413,1.334,1.365,1.365,0,0,0,.678,1.773C126.521,106.716,127.448,107.377,128.484,108.073ZM146.06,131.1a1.839,1.839,0,0,0-1.484,2.015c.094,2.323,1.242,3.494,3.681,3.327a3.227,3.227,0,0,0,.686-6.266c-.515-.141-1.138.219-1.7.354-.02,2.346.236,2.78,1.288,2.385l-.089-1.793c.665.543,1.212.768,1.42,1.2.734,1.511-.255,2.788-2.172,2.894-1.69.094-2.436-1.157-1.744-2.861A4.844,4.844,0,0,0,146.06,131.1Zm-3.88,40.2a3.282,3.282,0,0,0,2.966-3.317c.079-1.371-1.652-3.2-3.524-3.212a3.251,3.251,0,0,0-3.061,3.1A3.75,3.75,0,0,0,142.18,171.3ZM59,166.317l.1.666c1.406.273,2.477-.956,3.94-1.754-.275.606-.39.92-.548,1.2-.471.827-1.01,1.613-1.412,2.48a1.753,1.753,0,0,0,.02,1.271c.078.17.711.186,1,.039,1.573-.8,3.117-1.679,4.671-2.531-.479-1.025-.5-1.075-1.187-.707-.927.494-1.818,1.074-2.723,1.618a33.314,33.314,0,0,1,1.7-3.655,1.546,1.546,0,0,0,.072-1.163c-.105-.2-.7-.276-.964-.137C62.089,164.491,60.548,165.418,59,166.317Zm22.63,19.153c.158-.01.5.082.689-.065a4.551,4.551,0,0,0,1.5-1.42c.34-.7-.095-1.33-.758-1.714-.994-.577-1.957-1.225-3.011-1.892l-3.1,5.561c1.849,1,1.563-1.249,2.5-1.649,1.074.412,1.022,1.5,1,2.5a1.608,1.608,0,0,0,1.176,1.832Zm67.047-41.185c1.985.049,3.29-.958,3.415-2.636.111-1.489-.368-2.737-1.505-3.175a3.633,3.633,0,0,0-3.871.305,3.033,3.033,0,0,0-.98,3.545A2.719,2.719,0,0,0,148.672,144.286Zm-15.493,29.683c1.441,1.305,2.757,2.5,4.071,3.693.708.645,1.189.538,1.435-.481-1.344-1.193-1.344-1.193-1.253-2.547,1.389-.271,3.058,1.377,4.355-.838-.56-.046-.944-.085-1.33-.108-3.186-.19-3.186-.189-3.65-3.716-1.721,1.315-.407,3.226-.757,4.942l-1.944-1.786Zm4.85-56.03,4.853-3.9-.806-.986.037.4-2.809.9c-.062-1.812,1.97-3.193.121-4.732l-1.5,4.263h-3.152c1.292,1.482,2.835,1.285,4.421,1.415l-1.936,1.789Zm-51.6,67.815c.461-.669.709-1.262,1.419-.446A17.65,17.65,0,0,0,89.8,187c.2-2.173-1.613-3.568-3.438-2.786a1.434,1.434,0,0,0-.724,2.294,6.865,6.865,0,0,0,1.23,1.173c.407.394.8.812,1.245,1.271-1.528,1.065-2.425.606-2.734-1.134l-1-.166c-.17,2.2,1.737,3.782,3.578,2.929a2.522,2.522,0,0,0,1.156-1.629c.088-.468-.383-1.187-.763-1.616A15.708,15.708,0,0,0,86.429,185.754Zm-15.514-4.191c.994.826,1.943,1.666,2.946,2.412.276.206.72.13,1.085.183a4.041,4.041,0,0,0-.579-1.164,20.865,20.865,0,0,0-1.888-1.458l1.176-1.274,2.482,1.785.4-.8-2.278-1.972.761-1.16c1.215.338,1.743,2.252,3.511,1.484-1.21-1.028-2.2-1.936-3.27-2.724-.2-.15-.809.04-1.013.292C73.137,178.545,72.093,179.993,70.916,181.563Zm37.8,9.075-.348.54c.439.422.845,1.137,1.321,1.2a5.934,5.934,0,0,0,2.874-.273,2.218,2.218,0,0,0,.853-1.769,2.144,2.144,0,0,0-1.138-1.422,11.5,11.5,0,0,0-2.114-.351c-.281-.071-.5-.453-.744-.694.214-.209.413-.556.65-.594a4.236,4.236,0,0,1,1.268.1c.452.068.9.167,1.567.294-.894-1.707-3.18-2.172-4.093-1.055a2.535,2.535,0,0,0-.527,1.769c.079.437.725.863,1.2,1.058.544.224,1.193.114,1.759.3a3.853,3.853,0,0,1,1,.761c-.21.276-.416.556-.629.827-.558.712-1.038.371-1.59-.072A5.811,5.811,0,0,0,108.72,190.638Zm38.466-68.977c-.128-.9-.342-1.429-1.317-1.114-1.2.389-1.193-1.039-1.664-1.69a1.411,1.411,0,0,1,.194-1.187c.6-.714.236-1.131-.2-1.677-1.279,1.607-2.523,3.139-3.726,4.71-.2.259-.4.862-.286,1a1.426,1.426,0,0,0,1.03.577C143.2,122.129,145.169,121.882,147.186,121.661Zm-46.681,71.679c.8.279,1.347.158,1.59-.823.06-.245.377-.619.53-.593.93.158,2.081-.709,2.767.784.127.273.806.226,1.379.363-.793-1.953-1.448-3.678-2.206-5.342a1.426,1.426,0,0,0-1.079-.7,1.291,1.291,0,0,0-.94.744C101.822,189.595,101.183,191.463,100.505,193.341ZM138.1,108.535l.055-.532c-.5-.058-1.062-.317-1.471-.132-.935.422-1.423-.314-1.982-.787a1.191,1.191,0,0,1-.288-1.6c.131-.263-.291-.875-.461-1.328a34.407,34.407,0,0,0-2.362,5.27c-.141.384-.219,1.088-.036,1.264a1.326,1.326,0,0,0,1.228.256C134.573,110.2,136.329,109.348,138.1,108.535Zm-18.075-12.7c-.741.161-1.262.119-1.609.374-1.492,1.1-3,.452-3.332-1.534l-1.176-.189c.24,2.1.436,4.091.725,6.069a1.187,1.187,0,0,0,.781.789,1.242,1.242,0,0,0,1.006-.471C117.564,99.352,118.652,97.771,120.022,95.839Zm.168,94.242.436.153.94-2.363c.825-.161,1.818-1.347,3.012-.086.17.18.756-.137,1.272-.25-1.523-1.541-2.858-2.956-4.268-4.271a1.771,1.771,0,0,0-1.308-.222c-.186.022-.484.5-.472.748C119.9,185.888,120.053,187.984,120.191,190.081ZM61.917,157.759l.022-.511c-.4-.1-.845-.393-1.179-.275-1.154.412-2.278.943-3.4,1.469-1.148.54-1.425,1.4-.961,2.829.358,1.107,1.776,2.174,2.583,1.859,1.466-.571,2.911-1.213,4.453-1.864l-.607-1.161c-1.232.561-2.339,1.13-3.486,1.566-.781.3-1.641.4-1.9-.851-.227-1.081.368-1.478,1.19-1.756C59.742,158.69,60.823,158.2,61.917,157.759Zm11.805,17.934a1.232,1.232,0,0,0-1.94-.568c-1.045.566-2.1,1.1-3.152,1.651l-.153-.245,2.16-4.293-1.029-.733c-.878,1.77-1.726,3.432-2.521,5.125-.154.327-.258,1.022-.132,1.114a1.524,1.524,0,0,0,1.229.345C70.029,177.362,71.839,176.522,73.722,175.693Zm74.126-27.1c-.711,1.065-2.911.2-2.731,2.557,2.172-.62,4.054-2.377,6.5-1.38.036-1.318-.571-1.374-1.268-1.554a10.124,10.124,0,0,1-2.6-1.128,14.261,14.261,0,0,1-1.851-1.6C145.2,147.8,147.3,147.481,147.848,148.6Zm-3.768-18.362a9.477,9.477,0,0,1,4.844-5,1.442,1.442,0,0,0-1.2-.354,6.3,6.3,0,0,1-3.739.255c-.658-.137-1.327-.2-2.147-.319.686,1.73,2.045,1.422,3.178,1.6C144.654,127.714,142.821,128.307,144.08,130.234ZM118.3,101.912l.089.494c1.262.6,2.534,1.17,3.783,1.8.806.4.976,0,.989-.761l-1.57-.725,2.074-4.706c-.7-.636-1.153-.453-1.488.318-.384.882-.81,1.744-1.153,2.647-.324.852-.714,1.194-1.561.756C119.166,101.577,118.7,101.84,118.3,101.912Zm-17.9,85.168c-1.625-.289-3.022-.5-4.4-.8-.892-.2-.807.314-.738.927l1.761.449-.629,4.978,1.158.334.7-5.037C98.928,187.449,99.852,188.344,100.4,187.081Zm35.913-7.007-4.681-4.588-.613.792,3.969,4.779ZM92.213,192.1l1.36-6.154-1.2-.212c-.386,1.751-.674,3.424-1.134,5.034C90.918,191.879,91.216,192.184,92.213,192.1ZM68.721,170.191l-.092-.489c-.414,0-.933-.181-1.225.032-1.458,1.052-2.855,2.209-4.273,3.329l.1.491c.384,0,.863.167,1.135-.029C65.845,172.464,67.275,171.312,68.721,170.191Zm3.808-41.52L70.6,126.764l1.954.659A6.23,6.23,0,0,0,70.5,126c-.226-.1-.53.006-.8.019a2.546,2.546,0,0,0,.227.891,10.852,10.852,0,0,0,1.182,1.146c-.958.2-1.813-.63-2.527.436l2.8,1.489.213-.44-1.466-1.032Zm-5.233,25.4.091.4,3-.781-.066-.4-1.356.213-.289-1.182,1.249-.777-.164-.4-3.026,1.1.052.288,1.3-.134.355,1.236Zm14.2-40.439-.18.268,1.924,1.707v-1.714l1.475.722L84,112.063l-.322.086.15,1.443-1.459-1.1.226,1.844Zm-4.084,6.9c-.632-.563-1.078-1.236-1.609-1.335-.353-.066-.826.686-1.246,1.072l.263.328,1-.938-.443,1.936.4.363Zm-8.557,25.68-.047-.44a7.592,7.592,0,0,0-1.494.284,1.031,1.031,0,0,0-.563.743c.081.852.3,1.687.485,2.649l2.075-.318a2.539,2.539,0,0,0-1.278-.332c-.223-.035-.422-.255-.632-.39.18-.189.332-.462.545-.547a7.576,7.576,0,0,1,1.209-.285,3.271,3.271,0,0,0-1.43-.189c-.222-.016-.429-.285-.642-.439.186-.184.347-.461.564-.534A6.869,6.869,0,0,1,68.852,146.213Zm35.314-39.082-1.275,1.422,2.087.609c-.374-1.081.461-2.268-.822-2.612-.327-.088-.743.242-1.118.38l.1.354ZM72.222,124.509l.508,1.864,1.459-1.3-.127-.524a10.961,10.961,0,0,0-2.124-.485c-.153-.007-.34.819-.509,1.261l.271.106Zm-3.085,14.678,0-.517-1.736-.543.075-.436h1.875l.06-.505c-.586-.112-1.338-.525-1.718-.262-.491.341-.685,1.223-1.115,2.09Zm41.058-29.375V107.38l-1.012.394.065-1.474-.309-.071a6.912,6.912,0,0,0-.489,2.831c0,.141.135.284.245.5l.568-.878ZM67.5,136.045l.289.019.21-1.285.284.017.236,1.5h1.1l.2-1.93a12,12,0,0,0-2.223.344C67.454,134.75,67.522,135.579,67.5,136.045Zm2.294,8.781.055-.269c-.321-.079-.642-.157-.626-.154-.332-.7-.461-1.389-.748-1.487a1.747,1.747,0,0,0-1.566.161c-.3.279-.194,1.1-.278,1.749Zm5.928-21.765c-.237-.468-.308-.825-.481-.9a3.683,3.683,0,0,0-1.623-.5,5.594,5.594,0,0,0-1.69.79l2.592,1.677c-.105-.9-1.413-.869-.761-2.238Zm4.542-6.594v.471c.335-.035.763.062.98-.135a3.3,3.3,0,0,0,.515-1.105l-1.816-.394.9-.817-.227-.3-1.4,1.314.207.485,1.826-.122.032.207Zm14.827-6.236,1.287-1.7c-.414-.387-.82-1.062-1.243-1.076-.384-.012-1.016.639-1.108,1.105C93.953,108.915,94.553,109.439,95.087,110.232Zm-16.656,8.5-1.1.846.22.377a4.265,4.265,0,0,0,1.017-.815c.181-.26.125-.727.176-1.1l-1.914.307a3.123,3.123,0,0,1,.273-.547,1.616,1.616,0,0,1,.393-.279l-.3-.305c-.272.425-.851.963-.764,1.251C76.843,119.831,77.679,118.34,78.431,118.733Zm-10.487,14.28,2.2.72c-.315-.989-1.793-.5-1.418-2l1.918.448C68.7,130.813,68.391,130.922,67.944,133.013Zm25.113-22.551.351-.24-.554-3.383c-.25.419-.671.812-.616,1.084A21.386,21.386,0,0,0,93.056,110.462Zm13.378-1.341v-3.389C105.332,107,105.476,108.748,106.434,109.121Zm-18.92,3.634c-.9-.642-.623-2.127-1.905-1.8-.325.082-.584.5-.875.756l.252.3.934-.875.106,1.628Zm24.967-4.568-.18,2.12.433.03.42-2.436-1.674-.1-.006.328Zm-23.455,3.732a2.486,2.486,0,0,0-1.239-3.015Zm12.841-2.957.383-.075a15.477,15.477,0,0,0-.4-2.245c-.043-.137-.728-.019-1.117-.019l-.183.469C102.215,106.8,101.369,108.381,101.868,108.961Z" transform="translate(-40.957 -80.543)"/>
  <path id="Path_67" data-name="Path 67" class="cls-2" d="M127.1,120.37l-2.566-1.515c.863,1.9,1.625,3.415,2.259,5a33.418,33.418,0,0,1,.95,22.431,32.915,32.915,0,0,1-6.814,12.258,29.813,29.813,0,0,1-6.762,5.782,31.579,31.579,0,0,1-11.032,4.553c-.63.118-1.265.213-1.9.3a34.9,34.9,0,0,1-4.622.563,35.336,35.336,0,0,1-4.864-.547,18.229,18.229,0,0,1-3.418-.632c-2.16-.743-4.27-1.672-6.413-2.484a1.229,1.229,0,0,0-.914.1c-2.493,1.279-4.971,2.59-7.456,3.889-.068.035-.157.016-.383-.178l5.176-4.43c-1.936-2.123-3.763-4.191-5.651-6.187A32.877,32.877,0,0,1,64.593,144.2a33.3,33.3,0,0,1,1.731-21,31.888,31.888,0,0,1,6.175-9.458,33.764,33.764,0,0,1,9.773-7.355,32.363,32.363,0,0,1,17.452-3.11c1.714.132,3.395.73,5.1,1.026,2.327.4,4.7.557,6.994,1.112a19.439,19.439,0,0,1,13.074,9.848c.886,1.613,1.658,3.306,2.482,4.961ZM79.055,143.427a8.939,8.939,0,0,1-.389.969,24.2,24.2,0,0,0-3.175,9.5c-.174,2.118-.212,4.352,1.73,5.774,1.048.768,2.051,1.618,3.071,2.434a1.6,1.6,0,0,0,2.372-.276c1.934-1.881,3.963-3.647,5.824-5.615,3.48-3.683,6.944-7.394,10.271-11.25a54.956,54.956,0,0,0,8.22-13.256,13.688,13.688,0,0,0,.97-9.992,5.982,5.982,0,0,0-2.839-3.794c-2.939-1.446-5.9-1.042-8.738.558-1.166.655-2.327,1.321-3.49,1.983l-.229-.374,7.25-5.9H88.057a26.524,26.524,0,0,1,11.258-7.973,6.875,6.875,0,0,0-1.786-.266c-3.663.048-7.339.079-10.806,1.655a61.924,61.924,0,0,0-6.549,3.26,28.1,28.1,0,0,0-9.481,9.875,30.934,30.934,0,0,0-.705,30.024c.8,1.538,1.835,2.926,2.762,4.382C72.956,149.818,75.709,146.444,79.055,143.427Zm47.168-10.952c-1.875,4.87-5.012,8.1-8.462,11-1.357,1.143-2.73,2.271-4.155,3.3-2.777,2.01-5.564,4.006-8.407,5.893-1.966,1.3-4.024,2.436-6.059,3.6-3.573,2.049-7.16,4.068-10.743,6.09-1.127.636-2.265,1.242-3.473,1.9.309.259.544.593.838.679a38.187,38.187,0,0,0,5.863,1.582,28.8,28.8,0,0,0,10.919-.371,30.375,30.375,0,0,0,9.549-3.832,33.925,33.925,0,0,0,4.988-3.779,30.168,30.168,0,0,0,7.111-10.563A30.543,30.543,0,0,0,126.224,132.475Zm-15.175-17.052a69.523,69.523,0,0,1,13.237,9.979c0-.276.059-.489-.009-.62-.941-1.806-1.921-3.588-2.851-5.4a5.516,5.516,0,0,0-4.368-2.933C115.056,116.1,113.051,115.764,111.048,115.423Z" transform="translate(-33.229 -72.872)"/>
  <path id="Path_68" data-name="Path 68" d="M70.5,108.78l-6.483-5.9-.142.168,5.034,7.649-1.576,1.69-7.8-4.153-.14.229,6.228,5.808a7.848,7.848,0,0,0-.707.947c-.462.862-.886.727-1.5.131-1.872-1.826-3.789-3.593-5.7-5.371-.757-.7-1.538-1.373-2.482-2.212a21.743,21.743,0,0,1,2.333-2.546c.269-.222,1.026.178,1.5.429a62.27,62.27,0,0,0,6,2.944l-4.552-7.116L63.206,99.1c2.707,2.457,5.549,5.018,8.354,7.629a1.231,1.231,0,0,1-.017,1.039A5.388,5.388,0,0,1,70.5,108.78Z" transform="translate(-36.918 -74.65)"/>
  <path id="Path_69" data-name="Path 69" d="M56.339,115.744l-4.656-1.1.636-2.423,11.657,3.126-.537,2.139-5.166-1.045-1.248,4.615,5.123,1.462c-.135.6-.26.979-.3,1.371-.088.81-.525.914-1.114.766-2.815-.711-5.634-1.4-8.44-2.151a18.049,18.049,0,0,1-2.193-.9c-.073-1.9.14-2.127,1.783-1.809,1.053.2,2.1.427,3.241.659Z" transform="translate(-39.179 -68.889)"/>
  <path id="Path_70" data-name="Path 70" d="M80.305,91.884,74.91,93.5c-.017.081-.068.178-.049.253.72,2.71,1.492,3.084,3.778,1.861.553-.3,1.128-.543,1.767-.848l.646,2c-.784.291-1.54.609-2.316.852-.8.25-1.616.429-2.526.665l1.5,5.176-2.3.612c-1.089-3.657-2.183-7.246-3.193-10.864a1.472,1.472,0,0,1,.557-1.232c1.841-.64,3.716-1.158,5.584-1.7C79.695,89.9,79.971,89.486,80.305,91.884Z" transform="translate(-29.47 -78.653)"/>
  <path id="Path_71" data-name="Path 71" d="M65.267,95.975l1.881-1.507,6.732,10.285-2.038,1.3Z" transform="translate(-32.513 -76.685)"/>
  <path id="Path_72" data-name="Path 72" d="M103.826,150.651c1.518-1.338,1.491-1.317,2.563.381.78,1.238,1.642,2.411,2.5,3.665l-.855.663-2.585-3.655-.151.075,1.6,4.278c-.469.681-.961.779-1.595.206a19.008,19.008,0,0,0-2.76-2.121l2.269,3.421c-.488.645-.9.681-1.351.017-1-1.488-2.021-2.963-3.042-4.458,2.31-2.126,3.132,1.036,4.825,1.508Z" transform="translate(-17.074 -52.433)"/>
  <path id="Path_73" data-name="Path 73" d="M117.287,139.316c-1.122-.839-2-1.41-2.773-2.118a1.7,1.7,0,0,1-.393-1.259c.089-.662.486-.914,1.156-.629,1.62.688,3.27,1.287,4.969,1.947l-.189,1.118-4.094-1.6-.081.212c.986.7,1.987,1.367,2.949,2.105a3.016,3.016,0,0,1,.531.891c-.307.209-.62.606-.917.59-1.311-.072-2.616-.263-4.28-.452l4.355,1.918-.347,1.1-5.657-2.4c.009-1.795.869-1.927,2-1.715C115.328,139.171,116.154,139.2,117.287,139.316Z" transform="translate(-11.765 -58.802)"/>
  <path id="Path_74" data-name="Path 74" d="M82.679,93.9a2.887,2.887,0,0,1,2.7-2.759,3.157,3.157,0,0,1,2.693,2.8,3.027,3.027,0,0,1-2.729,2.906A2.9,2.9,0,0,1,82.679,93.9Z" transform="translate(-24.867 -78.149)"/>
  <path id="Path_75" data-name="Path 75" d="M57.236,127.125a3.081,3.081,0,0,1-2.622,3.021c-1.21.049-2.72-1.582-2.736-2.956a2.737,2.737,0,0,1,2.675-2.744A2.619,2.619,0,0,1,57.236,127.125Z" transform="translate(-38.392 -63.522)"/>
  <path id="Path_76" data-name="Path 76" d="M104.463,103.774c-1.036-.7-1.963-1.357-2.921-1.954a1.365,1.365,0,0,1-.678-1.773,3.927,3.927,0,0,1,1.413-1.334c.229-.157.615-.026.92-.026l-.206-3.214c.984.037,1.351.494,1.327,1.443a7.974,7.974,0,0,0,.164,2.008c.086.366.463.642.711.958a5.023,5.023,0,0,0,.645-.665c.331-.491.616-1.02.966-1.609l.957.835Zm.488-3.117a17.433,17.433,0,0,0-2.072-.835.857.857,0,0,0-.76.445,1.181,1.181,0,0,0,.217.941C103.187,102.238,104.049,102.117,104.951,100.657Z" transform="translate(-16.936 -76.244)"/>
  <path id="Path_77" data-name="Path 77" d="M115.994,117.536a4.844,4.844,0,0,1-.114,1.253c-.692,1.7.055,2.954,1.744,2.861,1.917-.106,2.906-1.383,2.172-2.894-.209-.43-.756-.656-1.42-1.2l.089,1.793c-1.052.4-1.308-.039-1.288-2.385.563-.135,1.186-.5,1.7-.354a3.227,3.227,0,0,1-.686,6.266c-2.439.167-3.588-1-3.681-3.327A1.839,1.839,0,0,1,115.994,117.536Z" transform="translate(-10.891 -66.975)"/>
  <path id="Path_78" data-name="Path 78" d="M113.948,147.17a3.75,3.75,0,0,1-3.619-3.432,3.251,3.251,0,0,1,3.061-3.1c1.872.01,3.6,1.841,3.524,3.212A3.282,3.282,0,0,1,113.948,147.17Zm-.725-5.176a1.471,1.471,0,0,0-1.687,1.582,2.433,2.433,0,0,0,2.491,2.281,1.639,1.639,0,0,0,1.8-1.677A2.507,2.507,0,0,0,113.223,141.994Z" transform="translate(-12.725 -56.41)"/>
  <path id="Path_79" data-name="Path 79" d="M55.041,142.551c1.553-.9,3.094-1.826,4.67-2.674.262-.14.859-.063.964.137a1.546,1.546,0,0,1-.072,1.163,33.314,33.314,0,0,0-1.7,3.655c.905-.544,1.8-1.124,2.723-1.618.686-.368.708-.318,1.187.707-1.554.852-3.1,1.727-4.671,2.531-.288.147-.921.131-1-.039a1.753,1.753,0,0,1-.02-1.271c.4-.866.941-1.652,1.412-2.48.158-.281.273-.594.548-1.2-1.464.8-2.534,2.028-3.94,1.754Z" transform="translate(-37.003 -56.776)"/>
  <path id="Path_80" data-name="Path 80" d="M72.193,156.576v3.155a1.608,1.608,0,0,1-1.176-1.832c.02-1,.072-2.091-1-2.5-.937.4-.65,2.648-2.5,1.649l3.1-5.561c1.053.668,2.016,1.315,3.011,1.892.663.384,1.1,1.013.758,1.714a4.551,4.551,0,0,1-1.5,1.42C72.688,156.658,72.351,156.566,72.193,156.576ZM70.132,154.6a17.948,17.948,0,0,0,2.113.817.964.964,0,0,0,.806-.35.978.978,0,0,0,.033-.819,4.576,4.576,0,0,0-1.783-.93C71.016,153.279,70.642,154.015,70.132,154.6Z" transform="translate(-31.525 -51.648)"/>
  <path id="Path_81" data-name="Path 81" d="M118.321,128.3a2.719,2.719,0,0,1-2.942-1.962,3.033,3.033,0,0,1,.98-3.545,3.633,3.633,0,0,1,3.871-.305c1.137.437,1.616,1.685,1.505,3.175C121.611,127.344,120.306,128.351,118.321,128.3Zm.073-1.222c1.443.026,2.33-.678,2.33-1.852,0-1.13-.848-1.836-2.21-1.842s-2.236.675-2.281,1.787C116.187,126.312,117.03,127.056,118.394,127.08Z" transform="translate(-10.606 -64.559)"/>
  <path id="Path_82" data-name="Path 82" d="M106.589,148.249l.927-.84,1.944,1.786c.35-1.715-.964-3.627.757-4.942.463,3.527.463,3.526,3.65,3.716.386.023.77.062,1.33.108-1.3,2.215-2.966.567-4.355.838-.091,1.354-.091,1.354,1.253,2.547-.246,1.019-.727,1.125-1.435.481C109.346,150.748,108.03,149.555,106.589,148.249Z" transform="translate(-14.368 -54.824)"/>
  <path id="Path_83" data-name="Path 83" d="M110.951,110.634l-.767-.852,1.936-1.789c-1.586-.13-3.129.068-4.421-1.415h3.152l1.5-4.263c1.849,1.538-.183,2.92-.121,4.732l2.809-.9-.037-.4.806.986Z" transform="translate(-13.88 -73.239)"/>
  <path id="Path_84" data-name="Path 84" d="M74.733,155.756a15.708,15.708,0,0,1,1.921,1.582c.38.429.851,1.148.763,1.616a2.522,2.522,0,0,1-1.156,1.629c-1.841.853-3.747-.728-3.578-2.929l1,.166c.309,1.74,1.206,2.2,2.734,1.134-.448-.459-.838-.876-1.245-1.271a6.865,6.865,0,0,1-1.23-1.173,1.434,1.434,0,0,1,.724-2.294c1.825-.781,3.635.613,3.438,2.786a17.65,17.65,0,0,1-1.949-1.692C75.442,154.494,75.193,155.087,74.733,155.756Z" transform="translate(-29.261 -50.545)"/>
  <path id="Path_85" data-name="Path 85" d="M63.324,153.754c1.177-1.57,2.222-3.018,3.334-4.4.2-.252.809-.442,1.013-.292,1.065.789,2.059,1.7,3.27,2.724-1.769.768-2.3-1.146-3.511-1.484l-.761,1.16,2.278,1.972-.4.8-2.482-1.785-1.176,1.274a20.868,20.868,0,0,1,1.888,1.458,4.041,4.041,0,0,1,.579,1.164c-.366-.053-.809.023-1.085-.183C65.267,155.421,64.318,154.58,63.324,153.754Z" transform="translate(-33.366 -52.734)"/>
  <path id="Path_86" data-name="Path 86" d="M89.73,160.025a5.811,5.811,0,0,1,1.305.617c.553.443,1.032.784,1.59.072.213-.272.419-.551.629-.827a3.853,3.853,0,0,0-1-.761c-.566-.181-1.215-.071-1.759-.3-.471-.194-1.117-.62-1.2-1.058A2.535,2.535,0,0,1,89.827,156c.912-1.117,3.2-.652,4.093,1.055-.668-.127-1.115-.226-1.567-.294a4.236,4.236,0,0,0-1.268-.1c-.237.039-.436.386-.65.594.246.24.463.623.744.694a11.5,11.5,0,0,1,2.114.351,2.144,2.144,0,0,1,1.138,1.422,2.218,2.218,0,0,1-.853,1.769,5.934,5.934,0,0,1-2.874.273c-.476-.063-.882-.779-1.321-1.2Z" transform="translate(-21.968 -49.93)"/>
  <path id="Path_87" data-name="Path 87" d="M118.468,112.412c-2.016.22-3.991.468-5.969.622a1.426,1.426,0,0,1-1.03-.577c-.111-.14.088-.743.286-1,1.2-1.572,2.447-3.1,3.726-4.71.438.545.8.963.2,1.677a1.411,1.411,0,0,0-.194,1.187c.471.65.462,2.078,1.664,1.69C118.125,110.983,118.34,111.516,118.468,112.412Zm-5.741-.275,2.5-.678L114.48,110Z" transform="translate(-12.239 -71.294)"/>
  <path id="Path_88" data-name="Path 88" d="M83.885,162.417c.678-1.878,1.317-3.746,2.041-5.569a1.291,1.291,0,0,1,.94-.744,1.426,1.426,0,0,1,1.079.7c.758,1.664,1.413,3.389,2.206,5.342-.573-.137-1.252-.089-1.379-.363-.686-1.494-1.838-.626-2.767-.784-.153-.026-.469.348-.53.593C85.232,162.576,84.684,162.7,83.885,162.417ZM87.9,159.8l-.979-2.434-.789,2.434Z" transform="translate(-24.337 -49.62)"/>
  <path id="Path_89" data-name="Path 89" d="M112.036,102.9c-1.769.813-3.524,1.665-5.316,2.409a1.326,1.326,0,0,1-1.228-.256c-.183-.176-.105-.879.036-1.264a34.407,34.407,0,0,1,2.362-5.27c.17.453.591,1.065.461,1.328a1.191,1.191,0,0,0,.288,1.6c.558.473,1.046,1.209,1.982.787.409-.184.976.075,1.471.132Zm-5.4,1.216,2.421-1.072-1.489-1.22Z" transform="translate(-14.896 -74.906)"/>
  <path id="Path_90" data-name="Path 90" d="M99.313,93.151c-1.37,1.931-2.458,3.513-3.6,5.038a1.242,1.242,0,0,1-1.006.471,1.187,1.187,0,0,1-.781-.789c-.289-1.977-.485-3.973-.725-6.069l1.176.189c.335,1.986,1.839,2.635,3.332,1.534C98.051,93.271,98.572,93.313,99.313,93.151ZM96.447,95.16l-1.744-.34.265,2.461Z" transform="translate(-20.248 -77.855)"/>
  <path id="Path_91" data-name="Path 91" d="M97.683,160.382c-.138-2.1-.294-4.194-.389-6.292-.012-.253.286-.727.472-.748a1.771,1.771,0,0,1,1.308.222c1.41,1.315,2.746,2.73,4.268,4.271-.517.114-1.1.43-1.272.25-1.194-1.261-2.187-.075-3.012.086l-.94,2.363Zm2.461-3.994-1.714-1.842.249,2.793Z" transform="translate(-18.449 -50.844)"/>
  <path id="Path_92" data-name="Path 92" d="M58.819,136.014c-1.094.442-2.174.931-3.285,1.307-.822.278-1.418.675-1.19,1.756.262,1.246,1.121,1.147,1.9.851,1.147-.436,2.254-1,3.486-1.566l.607,1.161c-1.541.65-2.986,1.292-4.453,1.864-.807.315-2.225-.753-2.583-1.859-.463-1.429-.187-2.29.961-2.829,1.12-.527,2.244-1.058,3.4-1.469.334-.118.783.171,1.179.275Z" transform="translate(-37.86 -58.799)"/>
  <path id="Path_93" data-name="Path 93" d="M67.356,149.506c-1.882.829-3.693,1.669-5.538,2.4a1.524,1.524,0,0,1-1.229-.345c-.125-.092-.022-.787.132-1.114.8-1.692,1.643-3.355,2.521-5.125l1.029.733-2.16,4.293.153.245c1.051-.548,2.107-1.085,3.152-1.651A1.232,1.232,0,0,1,67.356,149.506Z" transform="translate(-34.591 -54.356)"/>
  <path id="Path_94" data-name="Path 94" d="M117.619,130.346c-.548-1.115-2.651-.8-1.951-3.1a14.262,14.262,0,0,0,1.851,1.6,10.125,10.125,0,0,0,2.6,1.128c.7.18,1.3.236,1.268,1.554-2.448-1-4.33.76-6.5,1.38C114.707,130.551,116.908,131.411,117.619,130.346Z" transform="translate(-10.728 -62.293)"/>
  <path id="Path_95" data-name="Path 95" d="M114.849,118.292c-1.259-1.927.574-2.52.931-3.812-1.133-.181-2.491.127-3.178-1.6.82.119,1.489.183,2.147.319a6.3,6.3,0,0,0,3.739-.255,1.442,1.442,0,0,1,1.2.354A9.477,9.477,0,0,0,114.849,118.292Z" transform="translate(-11.727 -68.601)"/>
  <path id="Path_96" data-name="Path 96" d="M96.252,98.268c.393-.072.863-.335,1.163-.18.848.439,1.238.1,1.561-.756.343-.9.768-1.764,1.153-2.647.335-.771.789-.954,1.488-.318l-2.074,4.706,1.57.725c-.013.764-.183,1.164-.989.761-1.249-.629-2.521-1.2-3.783-1.8Z" transform="translate(-18.907 -76.898)"/>
  <path id="Path_97" data-name="Path 97" d="M85.4,156.4c-.553,1.264-1.477.368-2.147.853l-.7,5.037-1.158-.334.629-4.978-1.761-.449c-.069-.613-.154-1.123.738-.927C82.374,155.9,83.771,156.108,85.4,156.4Z" transform="translate(-25.949 -49.86)"/>
  <path id="Path_98" data-name="Path 98" d="M110.385,152.672l-1.325.983-3.969-4.779.613-.792Z" transform="translate(-15.025 -53.141)"/>
  <path id="Path_99" data-name="Path 99" d="M78.458,161.572c-1,.082-1.3-.223-.979-1.331.461-1.61.748-3.283,1.134-5.034l1.2.212Z" transform="translate(-27.203 -50.013)"/>
  <path id="Path_100" data-name="Path 100" d="M63.5,144.576c-1.446,1.121-2.875,2.272-4.355,3.333-.272.2-.751.029-1.135.029l-.1-.491c1.418-1.12,2.815-2.277,4.273-3.329.292-.213.81-.032,1.225-.032Z" transform="translate(-35.741 -54.928)"/>
  <path id="Path_101" data-name="Path 101" d="M65.648,116.382l-2.392-.161,1.466,1.032-.213.44-2.8-1.489c.714-1.066,1.569-.233,2.527-.436a10.852,10.852,0,0,1-1.182-1.146,2.546,2.546,0,0,1-.227-.891c.268-.013.571-.122.8-.019a6.23,6.23,0,0,1,2.057,1.422l-1.954-.659Z" transform="translate(-34.076 -68.254)"/>
  <path id="Path_102" data-name="Path 102" d="M60.98,134.1l1.147-.442-.355-1.236-1.3.134-.052-.288,3.026-1.1.164.4-1.249.777.289,1.182,1.356-.213.066.4-3,.781Z" transform="translate(-34.642 -60.568)"/>
  <path id="Path_103" data-name="Path 103" d="M70.729,105.583l1.1.7L71.6,104.44l1.459,1.1-.15-1.443.322-.086.715,2.553-1.475-.722v1.714l-1.924-1.707Z" transform="translate(-30.193 -72.494)"/>
  <path id="Path_104" data-name="Path 104" d="M68.707,110.308l-1.633,1.425-.4-.363.443-1.936-1,.938-.263-.328c.42-.386.894-1.138,1.246-1.072C67.629,109.072,68.075,109.745,68.707,110.308Z" transform="translate(-32.256 -70.318)"/>
  <path id="Path_105" data-name="Path 105" d="M62.532,127.877a6.869,6.869,0,0,0-1.207.2c-.217.073-.378.35-.564.534.213.154.42.423.642.439a3.271,3.271,0,0,1,1.43.189,7.573,7.573,0,0,0-1.209.285c-.213.085-.366.358-.545.547.21.135.409.355.632.39a2.539,2.539,0,0,1,1.278.332l-2.075.318c-.189-.963-.4-1.8-.485-2.649a1.031,1.031,0,0,1,.563-.743,7.592,7.592,0,0,1,1.494-.284Z" transform="translate(-34.638 -62.208)"/>
  <path id="Path_106" data-name="Path 106" d="M86.818,100.768l-1.025.153-.1-.354c.376-.138.792-.468,1.118-.38,1.282.344.448,1.531.822,2.612l-2.087-.609Z" transform="translate(-23.609 -74.18)"/>
  <path id="Path_107" data-name="Path 107" d="M64.474,112.8l-.522.925-.271-.106c.17-.442.357-1.268.509-1.261a10.961,10.961,0,0,1,2.124.485l.127.524-1.459,1.3Z" transform="translate(-33.209 -68.83)"/>
  <path id="Path_108" data-name="Path 108" d="M62.868,123.578l-2.556-.173c.43-.866.625-1.749,1.115-2.09.38-.263,1.133.15,1.718.262l-.06.505H61.21l-.075.436,1.736.543Z" transform="translate(-34.689 -64.934)"/>
  <path id="Path_109" data-name="Path 109" d="M91.151,103.542l-.933-1.134-.568.878c-.109-.212-.248-.354-.245-.5a6.912,6.912,0,0,1,.489-2.831l.309.071-.065,1.474,1.012-.394Z" transform="translate(-21.913 -74.273)"/>
  <path id="Path_110" data-name="Path 110" d="M60.948,121.191c.026-.466-.042-1.3.094-1.338a12,12,0,0,1,2.223-.344l-.2,1.93h-1.1l-.236-1.5-.284-.017-.21,1.285Z" transform="translate(-34.409 -65.689)"/>
  <path id="Path_111" data-name="Path 111" d="M63.507,127.4H60.344c.083-.652-.02-1.469.278-1.749a1.747,1.747,0,0,1,1.566-.161c.288.1.416.784.748,1.487-.016,0,.305.075.626.154Zm-.845-.961c-.609-.376-.884-.685-1.135-.663-.272.023-.524.355-.784.553.235.224.448.587.708.635S62.01,126.736,62.662,126.434Z" transform="translate(-34.675 -63.112)"/>
  <path id="Path_112" data-name="Path 112" d="M67.819,112.084l-1.963-1.173c-.652,1.369.656,1.334.761,2.238l-2.592-1.677a5.594,5.594,0,0,1,1.69-.79,3.683,3.683,0,0,1,1.623.5C67.511,111.26,67.581,111.617,67.819,112.084Z" transform="translate(-33.058 -69.566)"/>
  <path id="Path_113" data-name="Path 113" d="M70.136,107.77l1.02-.4-.032-.207-1.826.122-.207-.485,1.4-1.314.227.3-.9.817,1.816.394a3.3,3.3,0,0,1-.515,1.105c-.217.2-.645.1-.98.135Z" transform="translate(-30.834 -71.846)"/>
  <path id="Path_114" data-name="Path 114" d="M80.447,103.589c-.534-.793-1.134-1.317-1.065-1.674.092-.466.724-1.117,1.108-1.105.423.014.829.689,1.243,1.076Zm.861-1.665-.865-.838c-.2.278-.554.566-.541.829.013.245.4.554.669.653C80.7,102.618,80.953,102.248,81.307,101.924Z" transform="translate(-26.317 -73.9)"/>
  <path id="Path_115" data-name="Path 115" d="M69.157,109.111c-.751-.393-1.587,1.1-1.993-.268-.086-.288.492-.826.764-1.251l.3.305a1.616,1.616,0,0,0-.393.279,3.123,3.123,0,0,0-.273.547l1.914-.307c-.05.376.006.842-.176,1.1a4.265,4.265,0,0,1-1.017.815l-.22-.377Z" transform="translate(-31.684 -70.921)"/>
  <path id="Path_116" data-name="Path 116" d="M61.259,119.1c.448-2.091.753-2.2,2.7-.835l-1.918-.448c-.376,1.505,1.1,1.013,1.418,2Z" transform="translate(-34.273 -66.631)"/>
  <path id="Path_117" data-name="Path 117" d="M78.96,104.007a21.386,21.386,0,0,1-.819-2.54c-.055-.272.366-.665.616-1.084l.554,3.383Z" transform="translate(-26.862 -74.087)"/>
  <path id="Path_118" data-name="Path 118" d="M88.241,103c-.958-.373-1.1-2.126,0-3.389Z" transform="translate(-22.764 -74.425)"/>
  <path id="Path_119" data-name="Path 119" d="M75.706,105.058H74.218l-.106-1.628-.934.875-.252-.3c.291-.26.55-.674.875-.756C75.083,102.931,74.81,104.417,75.706,105.058Z" transform="translate(-29.15 -72.847)"/>
  <path id="Path_120" data-name="Path 120" d="M92.514,101.437l-1.006-.055.006-.328,1.674.1-.42,2.436-.433-.03Z" transform="translate(-20.99 -73.793)"/>
  <path id="Path_121" data-name="Path 121" d="M76.287,104.833l-1.239-3.015A2.486,2.486,0,0,1,76.287,104.833Z" transform="translate(-28.218 -73.457)"/>
  <path id="Path_122" data-name="Path 122" d="M85.235,102.586c-.5-.58.347-2.163-1.32-1.869l.183-.469c.389,0,1.074-.118,1.117.019a15.477,15.477,0,0,1,.4,2.245Z" transform="translate(-24.324 -74.168)"/>
  <path id="Path_123" data-name="Path 123" class="cls-1" d="M78.2,142.574c-3.346,3.018-6.1,6.391-6.306,11.714-.927-1.456-1.959-2.844-2.762-4.382a30.934,30.934,0,0,1,.705-30.024,28.1,28.1,0,0,1,9.481-9.875,61.924,61.924,0,0,1,6.549-3.26c3.467-1.576,7.144-1.607,10.806-1.655a6.875,6.875,0,0,1,1.786.266A26.524,26.524,0,0,0,87.2,113.331H99.049l-7.25,5.9.229.374c1.163-.662,2.324-1.328,3.49-1.983,2.841-1.6,5.8-2,8.738-.558a5.982,5.982,0,0,1,2.839,3.794,13.688,13.688,0,0,1-.97,9.992,54.956,54.956,0,0,1-8.22,13.256c-3.327,3.855-6.791,7.567-10.271,11.25-1.861,1.969-3.89,3.734-5.824,5.615a1.6,1.6,0,0,1-2.372.276c-1.02-.816-2.023-1.665-3.071-2.434-1.941-1.422-1.9-3.655-1.73-5.774a24.2,24.2,0,0,1,3.175-9.5A8.941,8.941,0,0,0,78.2,142.574Zm2.465-6.581a4.691,4.691,0,0,0,4.834-4.71,4.808,4.808,0,1,0-9.613-.076C75.9,133.656,77.947,136.222,80.666,135.993Z" transform="translate(-32.375 -72.02)"/>
  <path id="Path_124" data-name="Path 124" class="cls-1" d="M119.727,123.527a30.543,30.543,0,0,1-2.032,15.508,30.168,30.168,0,0,1-7.111,10.563,33.924,33.924,0,0,1-4.988,3.779,30.375,30.375,0,0,1-9.549,3.832,28.8,28.8,0,0,1-10.919.371A38.19,38.19,0,0,1,79.267,156c-.294-.086-.528-.42-.838-.679,1.207-.661,2.346-1.266,3.473-1.9,3.583-2.022,7.17-4.041,10.743-6.09,2.035-1.167,4.093-2.3,6.059-3.6,2.844-1.887,5.63-3.883,8.407-5.893,1.425-1.032,2.8-2.16,4.155-3.3C114.715,131.623,117.852,128.4,119.727,123.527Z" transform="translate(-26.733 -63.925)"/>
  <path id="Path_125" data-name="Path 125" class="cls-1" d="M96.581,111.678c2,.341,4.008.675,6.01,1.025a5.516,5.516,0,0,1,4.368,2.933c.93,1.813,1.91,3.595,2.851,5.4.068.131.009.344.009.62A69.523,69.523,0,0,0,96.581,111.678Z" transform="translate(-18.762 -69.128)"/>
  <path id="Path_126" data-name="Path 126" class="cls-1" d="M104.54,99.332c-.9,1.461-1.764,1.582-2.615.551a1.181,1.181,0,0,1-.217-.941.857.857,0,0,1,.76-.445A17.433,17.433,0,0,1,104.54,99.332Z" transform="translate(-16.525 -74.919)"/>
  <path id="Path_127" data-name="Path 127" class="cls-1" d="M112.855,141.581a2.507,2.507,0,0,1,2.6,2.186,1.639,1.639,0,0,1-1.8,1.677,2.433,2.433,0,0,1-2.491-2.281A1.471,1.471,0,0,1,112.855,141.581Z" transform="translate(-12.357 -55.997)"/>
  <path id="Path_128" data-name="Path 128" class="cls-1" d="M69.334,154.04c.509-.584.884-1.321,1.169-1.281a4.576,4.576,0,0,1,1.783.93.978.978,0,0,1-.033.819.964.964,0,0,1-.806.35A17.946,17.946,0,0,1,69.334,154.04Z" transform="translate(-30.727 -51.089)"/>
  <path id="Path_129" data-name="Path 129" class="cls-1" d="M118.066,126.682c-1.364-.024-2.208-.768-2.162-1.907.045-1.112.914-1.793,2.281-1.787s2.21.712,2.21,1.842C120.4,126,119.51,126.708,118.066,126.682Z" transform="translate(-10.278 -64.161)"/>
  <path id="Path_130" data-name="Path 130" class="cls-1" d="M112.333,111.143l1.753-2.133.747,1.455Z" transform="translate(-11.845 -70.299)"/>
  <path id="Path_131" data-name="Path 131" class="cls-1" d="M87.211,159.414H85.444l.789-2.434Z" transform="translate(-23.653 -49.235)"/>
  <path id="Path_132" data-name="Path 132" class="cls-1" d="M106.254,103.107l.931-2.292,1.489,1.22Z" transform="translate(-14.515 -73.898)"/>
  <path id="Path_133" data-name="Path 133" class="cls-1" d="M95.987,94.24l-1.479,2.121L94.243,93.9Z" transform="translate(-19.789 -76.934)"/>
  <path id="Path_134" data-name="Path 134" class="cls-1" d="M99.8,156.013l-1.465.951-.249-2.793Z" transform="translate(-18.103 -50.468)"/>
  <path id="Path_135" data-name="Path 135" class="cls-1" d="M62.541,126.315c-.652.3-.956.571-1.212.524s-.473-.41-.708-.635c.26-.2.512-.53.784-.553C61.657,125.63,61.932,125.939,62.541,126.315Z" transform="translate(-34.553 -62.992)"/>
  <path id="Path_136" data-name="Path 136" class="cls-1" d="M81.147,101.84c-.354.324-.606.694-.737.645-.273-.1-.656-.409-.669-.653-.013-.263.344-.551.541-.829Z" transform="translate(-26.157 -73.816)"/>
  <path id="Path_137" data-name="Path 137" class="cls-2" d="M77.521,129.508c-2.718.229-4.762-2.337-4.779-4.787a4.808,4.808,0,1,1,9.613.076A4.691,4.691,0,0,1,77.521,129.508Z" transform="translate(-29.23 -65.535)"/>
</svg>
