<svg xmlns="http://www.w3.org/2000/svg" width="210.266" height="343.766" viewBox="0 0 210.266 343.766">
  <defs>
    <style>
      .cls-1 {
        fill: #bdb1c9;
        opacity: 0.8;
      }

      .cls-1, .cls-10, .cls-4, .cls-9 {
        mix-blend-mode: multiply;
        isolation: isolate;
      }

      .cls-2 {
        fill: #594a42;
      }

      .cls-3, .cls-4 {
        fill: #00a79d;
      }

      .cls-4, .cls-9 {
        opacity: 0.5;
      }

      .cls-5 {
        fill: #ffbba6;
      }

      .cls-6 {
        fill: #42393a;
      }

      .cls-7 {
        fill: #a59c9a;
      }

      .cls-8, .cls-9 {
        fill: #877f7d;
      }
    </style>
  </defs>
  <g id="model1" transform="translate(3579.826 1204.674)">
    <ellipse id="model_dummy1" class="cls-1" cx="84.285" cy="21.454" rx="84.285" ry="21.454" transform="translate(-3579.826 -903.816)"/>
    <g id="Group_22" data-name="Group 22" transform="translate(-3548.214 -1204.674)">
      <path id="Path_174" data-name="Path 174" class="cls-2" d="M307.737,670.955c-2.048-3.2-12.223-.921-17.61-3.983-4.235-2.406-3.99-8.979-3.99-8.979l-8.464-1.287s-2.341,9.592-2.465,16.1a3.62,3.62,0,0,0,3.07,3.613,117.478,117.478,0,0,0,30.4.875A7.739,7.739,0,0,0,307.737,670.955Z" transform="translate(-209.802 -348.162)"/>
      <path id="Path_175" data-name="Path 175" class="cls-2" d="M259.107,666.928c-1.986-3.1-10.73-2.969-15.952-5.937-4.105-2.332-2.9-8.558-2.9-8.558l-8.113-1.233s-3.326,9.139-3.445,15.445a3.508,3.508,0,0,0,2.976,3.5,254.061,254.061,0,0,0,28.347,2.924A7.5,7.5,0,0,0,259.107,666.928Z" transform="translate(-213.875 -348.644)"/>
      <path id="Path_176" data-name="Path 176" class="cls-3" d="M301.179,600.654l-5.542-85.761-47.972-.745s-4.962,10.563-5.6,21.336,1.173,45.941,1.175,45.952L242.46,593.2l.2-1.12-12.678,73.355,10.351,2.475,21.888-71.152.2-1.123,7.082-47.486,11.64,54.43-.8,69.878,10.535.944L301.2,602.459l.055-.395Z" transform="translate(-213.761 -360.643)"/>
      <path id="Path_177" data-name="Path 177" class="cls-4" d="M294.6,514.893l-47.666-.74h-.308a71.843,71.843,0,0,0-4.758,14.929c8.625.5,24.6.81,32.437,5.88,9.375,6.066,18.5,20.745,23.561,30.456Z" transform="translate(-212.721 -360.642)"/>
      <path id="Path_178" data-name="Path 178" class="cls-4" d="M258.767,554.7c-3.451,6.858-.626,29.044-3.047,32.675s-7.26.869-4.034,3.662-5.414,50.2-5.414,50.2h0L260.8,594.021l.2-1.123,7.082-47.486A20.359,20.359,0,0,0,258.767,554.7Z" transform="translate(-212.335 -357.906)"/>
      <path id="Path_179" data-name="Path 179" class="cls-5" d="M285.719,384.588c-3.938-6.147-15.329-7.277-23.722-1.172s-1.7,22.239-1.7,22.239c6.547,14.293,22.728,15.142,26.707,8.957S289.654,390.734,285.719,384.588Z" transform="translate(-211.329 -372.443)"/>
      <path id="Path_180" data-name="Path 180" class="cls-5" d="M277.46,411.832s-1.375,11.8,2.8,18.609a50.905,50.905,0,0,1-11.887-.219c-5.081-.928,1.68-22.091,1.68-22.091S275.393,408.14,277.46,411.832Z" transform="translate(-210.566 -369.924)"/>
      <path id="Path_181" data-name="Path 181" class="cls-6" d="M281.955,373.03a49.752,49.752,0,0,0-20.609,3.923,13.372,13.372,0,0,0-7.8,13.863c1.064,8.889,4.539,18.224,8.095,23.326,4.666,6.7,17.849,8.534,19.471,4.723s-.808-8.027-3.39-10.169.483-7.7,2.5-6.065,3.044,8.034,4.9,6.2-6.59-13.527-1.342-14.114c3.834-.43,6.811-3.462,8.771-7.086a23.1,23.1,0,0,0,2.618-8.287C295.906,372.186,286.606,373.221,281.955,373.03Z" transform="translate(-211.707 -373)"/>
      <path id="Path_182" data-name="Path 182" class="cls-7" d="M263.775,420.164a11.019,11.019,0,0,1,7.642-1.08,72.31,72.31,0,0,1,9.276,3.067l2.138,6.294s-8.044-1.982-12.468-1.757S261.211,426.976,263.775,420.164Z" transform="translate(-210.866 -368.989)"/>
      <path id="Path_183" data-name="Path 183" class="cls-5" d="M224.9,506.662s2.881,10.74,4.328,13.021-1.591,1.449-3.293-1.463-2.064-1.086-1.914-.078,1.138,7.37.915,8.819-1.078-.156-1.725-2.519-1.128-3.815-1.128-3.815-.022,6.314-1.391,6.907-4.388-3.792-5.477-6.516,4.194-14.7,4.194-14.7Z" transform="translate(-215.067 -361.328)"/>
      <path id="Path_184" data-name="Path 184" class="cls-5" d="M360.862,409.726s7.107-9.411,10.222-12.611,8.985-6.761,9.785-5.932-4.051,4.3-4.892,5.715,2.4,2.387,3.772,5.365-.633,6.711-3.1,7.786-5.818.708-7.164,1.905-3.925,3.142-3.925,3.142Z" transform="translate(-202.303 -371.419)"/>
      <path id="Path_185" data-name="Path 185" class="cls-8" d="M374.555,406.194c-6.886,6.026-12.966,12.729-20.019,18.5-3.526,2.879-7.078,5.73-10.636,8.4-1.771,1.349-3.568,2.644-5.291,3.8a27.042,27.042,0,0,1-2.472,1.538,6,6,0,0,1-1,.519,1.093,1.093,0,0,0-.332.045c-.388-.213-2.185.008-4.17-.189-1.871-.071-4.049-.315-6.135-.547-4.236-.48-8.649-1.208-13.026-1.959-2.8-.5-29.1-10.551-34.313-11.451a16.958,16.958,0,0,0-3.784-.217c-11.018.613-18.395,2.875-22.774,6.944a12.524,12.524,0,0,0-2.436,2.334c-2.327,3.007-4.625,6.035-6.918,9.113a241.255,241.255,0,0,0-14.706,21.664,45.763,45.763,0,0,0-5.453,13.76,111.757,111.757,0,0,0-2.079,13.129,253.188,253.188,0,0,0-1.2,25.507l7.783.674a243.835,243.835,0,0,1,5.871-23.674,97.676,97.676,0,0,1,4.03-10.945,28.67,28.67,0,0,1,5.5-8.413c1.475-1.661,3.067-3.328,4.7-4.994-.529,20.936-2.053,46.841-2.579,63.207,22.952,8.654,55.457,2.253,55.457,2.253s.356-38.351,4.1-52.528a156.764,156.764,0,0,0,4.187-22.461c1.081-.045,2.147-.061,3.234-.113,4.788-.26,9.55-.538,14.494-1.089,2.5-.291,4.919-.554,7.618-1.06a39.049,39.049,0,0,0,9.334-2.628,30.8,30.8,0,0,0,2.688-1.6,19.745,19.745,0,0,0,1.827-1.439c1.17-.939,2.035-1.81,2.957-2.69,1.819-1.765,3.478-3.5,5.088-5.253,3.241-3.5,6.3-7.019,9.327-10.564,6.047-7.093,11.889-14.245,17.674-21.505Z" transform="translate(-214.827 -370.094)"/>
      <path id="Path_186" data-name="Path 186" class="cls-9" d="M338.165,447.478c-6.238,1.732-22.395,3.812-37.886,2.425-8.558,2.08-8.178,18.371-9.407,39.86s-2.381,21.656-8.391,23.652-5.428,5.462,0,6.156c5.238.669-5.635,14.835-41.3,8.658-.038,1.04-.073,2.052-.1,3.027,22.952,8.654,55.457,2.253,55.457,2.253s.356-38.351,4.1-52.528a156.764,156.764,0,0,0,4.187-22.461c1.081-.045,2.147-.061,3.234-.113,4.788-.26,9.55-.538,14.494-1.089,2.5-.291,4.919-.554,7.618-1.06a39.049,39.049,0,0,0,9.334-2.628,30.8,30.8,0,0,0,2.688-1.6,19.745,19.745,0,0,0,1.827-1.439c1.17-.939,2.035-1.81,2.957-2.69,1.819-1.765,3.478-3.5,5.088-5.253,3.241-3.5,6.3-7.019,9.327-10.564,1.918-2.25,3.787-4.519,5.668-6.782C365.562,426.651,344.186,445.805,338.165,447.478Z" transform="translate(-212.79 -368.421)"/>
      <path id="Path_187" data-name="Path 187" class="cls-9" d="M230.272,471.773c-1.419,4.919-3.564,33.749-3.564,33.749l.09-.165c1.163-4.979,2.419-9.928,3.885-14.716a97.676,97.676,0,0,1,4.03-10.945,28.67,28.67,0,0,1,5.5-8.413c1.475-1.661,3.067-3.328,4.7-4.994,0,0,2.791-18.563,3.064-20.749S231.69,466.854,230.272,471.773Z" transform="translate(-214.048 -366.662)"/>
      <path id="Path_188" data-name="Path 188" class="cls-10" d="M273.876,390.315c-5.371,1.352-2.253,12.87-9.116,12.934-3.852.036-6.511.1-8.619-.734a46.018,46.018,0,0,0,5.266,11.116c4.666,6.7,17.849,8.534,19.471,4.723s-.808-8.027-3.39-10.169.483-7.7,2.5-6.065,3.044,8.034,4.9,6.2-6.59-13.527-1.342-14.114c3.834-.43,6.811-3.462,8.771-7.086a23.1,23.1,0,0,0,2.618-8.287S291.315,389.911,273.876,390.315Z" transform="translate(-211.471 -372.489)"/>
    </g>
  </g>
</svg>
