<svg xmlns="http://www.w3.org/2000/svg" width="1920" height="768" viewBox="0 0 1920 768">
  <defs>
    <style>
      .cls-1 {
        fill: #fff;
      }

      .cls-2 {
        fill: #9a8ea5;
      }
    </style>
  </defs>
  <g id="bg2" transform="translate(0 -768)">
    <rect id="Rectangle_8" data-name="Rectangle 8" class="cls-1" width="1920" height="768" transform="translate(0 768)"/>
    <path id="Path_199" data-name="Path 199" class="cls-2" d="M1366,768v370.759c0-14.84-27.319-48.573-35.168-62.067-12.188-20.952-25.457-41.951-43.845-58.084-27.862-24.444-64.918-29.491-100.684-28.476-39.112,1.11-71.446,3.62-109.216-11.214-14.513-5.7-28.685-13.3-39.052-24.949-19.8-22.24-11.563-51.965-18.36-78.7-7.86-30.91-38.3-51.908-68.243-59.258-36.156-8.874-74.1-2.141-110.668,4.872-28.864,5.538-59.482,11.109-86.986.749C738.211,815.77,722.2,787.591,715,768Z" transform="translate(554)"/>
    <path id="Path_200" data-name="Path 200" class="cls-2" d="M0,1536V1165.241c0,14.84,28.824,48.573,37.107,62.067,12.86,20.952,26.861,41.951,46.262,58.084,29.4,24.444,68.5,29.491,106.237,28.476,41.269-1.11,75.385-3.62,115.238,11.214,15.313,5.7,30.266,13.3,41.205,24.949,20.891,22.24,12.2,51.965,19.372,78.7,8.293,30.91,40.41,51.908,72.006,59.258,38.15,8.874,78.191,2.141,116.769-4.873,30.457-5.537,62.763-11.108,91.783-.748C662.4,1488.23,679.3,1516.409,686.9,1536Z" transform="translate(0 -3)"/>
  </g>
</svg>
