<svg xmlns="http://www.w3.org/2000/svg" width="264.139" height="272.313" viewBox="0 0 264.139 272.313">
  <defs>
    <style>
      .cls-1 {
        fill: #f8e4d2;
      }

      .cls-2 {
        fill: #006838;
      }

      .cls-3, .cls-4 {
        fill: #bb4738;
      }

      .cls-15, .cls-19, .cls-20, .cls-4, .cls-7 {
        opacity: 0.5;
      }

      .cls-15, .cls-18, .cls-19, .cls-20, .cls-21, .cls-4, .cls-7 {
        mix-blend-mode: multiply;
        isolation: isolate;
      }

      .cls-5 {
        fill: #ffbba6;
      }

      .cls-6, .cls-7 {
        fill: #ffce55;
      }

      .cls-8 {
        fill: #00a79d;
      }

      .cls-9 {
        fill: #fffdeb;
      }

      .cls-10, .cls-20 {
        fill: #fee0cf;
      }

      .cls-11 {
        fill: #191c1e;
      }

      .cls-12 {
        fill: #647fa0;
      }

      .cls-13, .cls-15 {
        fill: #7991b4;
      }

      .cls-14 {
        fill: #a2c4ed;
      }

      .cls-16 {
        fill: #ffe7c4;
      }

      .cls-17 {
        fill: #ffc9ae;
      }

      .cls-19 {
        fill: #f4e0cb;
      }

      .cls-21 {
        fill: #d1c7f9;
        opacity: 0.8;
      }
    </style>
  </defs>
  <g id="model2" transform="translate(-3352.077 1187.859)">
    <g id="Group_21" data-name="Group 21" transform="translate(3383.776 -1187.859)">
      <path id="Path_139" data-name="Path 139" class="cls-1" d="M1099.556,623.563s-5.43,5.755-6.657,10.3c-1.122,4.383-1.736,6.132-3.617,5.649s-19.331-8.214-24.315-11.331,11.817-2.548,18.744-1.8,11.425-6.365,11.425-6.365Z" transform="translate(-1064.057 -411.189)"/>
      <path id="Path_140" data-name="Path 140" class="cls-2" d="M1092.9,633.4a13.238,13.238,0,0,1,.954-2.4c-1.247-.437-2.636-1.407-4.572-.587-3.8,1.628-11.967-2.987-14.717-5.052-6.624-.152-12.9.289-9.6,2.357,4.984,3.117,22.435,10.847,24.315,11.331S1091.776,637.784,1092.9,633.4Z" transform="translate(-1064.057 -410.723)"/>
      <path id="Path_141" data-name="Path 141" class="cls-3" d="M1236.88,559.478s-.468,27.848-49,25.642c-29.937-.63-44.909-6.368-44.909-6.368s-27.576,38.389-47.487,53.6l-6.213-3.5s34.233-64.8,43.687-70.261c7.247-3.887,72.14-5.64,72.14-5.64Z" transform="translate(-1061.849 -417.061)"/>
      <path id="Path_142" data-name="Path 142" class="cls-4" d="M1119.8,571.179c1.616,8.714,3.567,20.8,2.965,30,10.015-12.163,17.536-22.628,17.536-22.628a67.07,67.07,0,0,0,7.452,2.116c.771-5.7,2.336-16.99,2.863-18.576a24.262,24.262,0,0,0,.848-6.836c-10.344.825-18.818,1.863-21.177,3.128C1127.984,559.714,1124.2,564.59,1119.8,571.179Z" transform="translate(-1059.176 -416.859)"/>
      <path id="Path_143" data-name="Path 143" class="cls-1" d="M1127.485,627.959s-2.161,7.613-1.151,12.213c1.026,4.407,1.289,6.24-.6,6.68s-20.941,1.634-26.8,1.168,9.31-7.713,15.8-10.244,7.2-10.919,7.2-10.919Z" transform="translate(-1061.119 -410.59)"/>
      <path id="Path_144" data-name="Path 144" class="cls-3" d="M1239.4,560.513s7.569,18.236-5.505,27.526-82.245-8.474-82.245-8.474-.536,29.893-26.342,59.141l-7.263-2.235s14.96-64.468,24.25-77.887c16.172-5.85,60.288-5.64,60.288-5.64Z" transform="translate(-1059.33 -417.061)"/>
      <path id="Path_145" data-name="Path 145" class="cls-2" d="M1126.334,639.307a13.171,13.171,0,0,1-.261-2.569c-1.309.187-2.99-.033-4.328,1.588-2.618,3.2-11.995,2.872-15.387,2.31-5.947,2.92-11.314,6.21-7.428,6.519,5.861.466,24.91-.729,26.8-1.168S1127.36,643.714,1126.334,639.307Z" transform="translate(-1061.119 -409.725)"/>
      <path id="Path_146" data-name="Path 146" class="cls-4" d="M1231.189,588.039c13.074-9.29,5.505-27.526,5.505-27.526l-36.816-7.569s-3.918-.017-9.827.111c.337,1.624,19.731,14.075,21.344,21.605,1.645,7.679-56.892.761-62.452,4.9C1148.944,579.565,1218.114,597.329,1231.189,588.039Z" transform="translate(-1056.625 -417.061)"/>
      <path id="Path_147" data-name="Path 147" class="cls-5" d="M1148.3,526.665s-2.745.786-4.36.221-4.52-2.583-7.184-1.937-5.733,5.812-6.943,7.427,3.794,0,6.3-1.7,4.278,2.423,7.1,2.02,6.544-1.252,6.544-1.252Z" transform="translate(-1058.316 -419.523)"/>
      <path id="Path_148" data-name="Path 148" class="cls-6" d="M1212.506,471.76a13.136,13.136,0,0,0-16,10.512c-.6,3.466-1.257,6.916-1.969,10.273-.834,3.947-1.767,7.858-2.862,11.429-.522,1.828-1.133,3.506-1.7,4.963,0,0-.4.968-.421,1.014-.862,2.075-2.011,2.634-3.988,3.686-1.74.926-3.543,1.846-5.408,2.718-3.7,1.771-7.544,3.455-11.422,5.082-7.753,3.259-15.7,6.34-23.64,9.253l1.7,7.031c8.556-1.168,17.028-2.481,25.566-4.051,4.269-.782,8.542-1.634,12.866-2.643,2.16-.488,4.338-1.052,6.555-1.67,1.126-.344,2.213-.623,3.378-1.028l1.749-.611.877-.309a17.7,17.7,0,0,0,1.6-.9,19.845,19.845,0,0,0,2.964-2.2l1.8-1.872.874-.969.632-.835,1.255-1.694a70.97,70.97,0,0,0,4-6.422c2.369-4.189,4.332-8.278,6.195-12.386,1.594-3.53,3.093-7.019,4.525-10.528A13.19,13.19,0,0,0,1212.506,471.76Z" transform="translate(-1056.961 -424.2)"/>
      <path id="Path_149" data-name="Path 149" class="cls-7" d="M1200.9,521.947l.874-1.111.632-.96,1.255-1.946c1.549-2.548,2.86-4.988,4-7.374,2.369-4.809,4.332-9.5,6.195-14.221,1.594-4.054,3.093-8.06,4.525-12.088a17.04,17.04,0,0,0,.668-2.468,13.145,13.145,0,0,0-25.8.493c-.6,3.466-1.257,6.916-1.969,10.273-.834,3.947-1.767,7.858-2.862,11.429-.522,1.828-1.133,3.506-1.7,4.963l-.421,1.014c-.862,2.075-2.011,2.634-3.988,3.686l-.035.017c1.2,4.99,2.607,11.788,2.726,16.6,1.175-.3,2.335-.566,3.528-.9,1.126-.344,2.214-.623,3.378-1.028l1.749-.611.877-.309a17.7,17.7,0,0,0,1.6-.9c.365-.228.767-.5,1.164-.774a14.8,14.8,0,0,0,1.8-1.632Z" transform="translate(-1053.706 -424.2)"/>
      <path id="Path_150" data-name="Path 150" class="cls-5" d="M1163.212,542.549s-2.745.787-4.36.222-4.521-2.583-7.185-1.937-5.731,5.812-6.942,7.427,3.793,0,6.3-1.7,4.279,2.423,7.1,2.02,6.544-1.252,6.544-1.252Z" transform="translate(-1057.01 -418.132)"/>
      <path id="Path_151" data-name="Path 151" class="cls-8" d="M1265.832,617.957V589.632h4.71v-4.308H1170.36a14.747,14.747,0,0,0-14.747,14.747v7.446a14.747,14.747,0,0,0,14.747,14.747h100.182v-4.308Z" transform="translate(-1056.041 -414.226)"/>
      <path id="Path_152" data-name="Path 152" class="cls-6" d="M1231.621,528.576c.854-12.125,2.216-24.523.7-36.648-1.16-9.306-6.5-19.242-16.275-21.559-5.271-1.247-9.45.07-13.413,2.4a69.353,69.353,0,0,0-6.1,4.2c-7.359,5.467-17.163,16.753-14.808,27.516,1.254,5.73,3.217,8.786,6.637,13.1,3.807,4.8,5.328,10.351,5.524,16.413.058,1.8-3.142,21.043-5.722,24.537a1,1,0,0,0,.251,1.387c8.732,6.347,28.918,20.613,49.521,12.63C1238.756,565.494,1230.264,547.844,1231.621,528.576Z" transform="translate(-1053.785 -424.333)"/>
      <path id="Path_153" data-name="Path 153" class="cls-9" d="M1171.981,589.285a11.605,11.605,0,0,0-11.605,11.605V606a11.605,11.605,0,0,0,11.605,11.605h95.912V589.285Z" transform="translate(-1055.624 -413.88)"/>
      <path id="Path_154" data-name="Path 154" class="cls-3" d="M1176.819,647.381V623.6h-4.71v-4.309H1272.29a14.748,14.748,0,0,1,14.747,14.748v2.9a14.747,14.747,0,0,1-14.747,14.747H1172.109v-4.308Z" transform="translate(-1054.596 -411.253)"/>
      <path id="Path_155" data-name="Path 155" class="cls-10" d="M1270.073,623.253a11.605,11.605,0,0,1,11.605,11.605v.57a11.606,11.606,0,0,1-11.605,11.606H1174.16V623.253Z" transform="translate(-1054.417 -410.906)"/>
      <path id="Path_156" data-name="Path 156" class="cls-5" d="M1196.732,433.117c-7.18.234-14.829,3.357-15.023,9.933-.259,8.7,2.587,11.156,2.582,14.029s-1.37,5.65-1.234,6.483,4.258-.386,4.793.455,4.91,6.691,8.734,6.356c4.977-.435,9.853-5.453,12.3-9.151,4.652-7.028,6.166-21.45-2.6-26.286A19.424,19.424,0,0,0,1196.732,433.117Z" transform="translate(-1053.757 -427.553)"/>
      <path id="Path_157" data-name="Path 157" class="cls-5" d="M1212.107,472.785a26.118,26.118,0,0,1-6.344-17.456s-8.072.256-6.344,4.691.28,14.9.28,14.9-10.444,8.543-4.419,10.183c5.3,1.442,13.525-5.079,16.942-9.391A2.257,2.257,0,0,0,1212.107,472.785Z" transform="translate(-1052.732 -425.607)"/>
      <path id="Path_158" data-name="Path 158" class="cls-11" d="M1178.594,447.878s.391,2.418,13.191,1.864c4.282-.776,3.807,5.6,5.1,10.054.973,3.361,2.535-1.889,5.614-6.208s6.038,3.918,2.163,6.377,3.015,12.881-8.593,17.468c5.01,2.276,16.253-1.008,24.447-7.281s-2.5-32.071-8.507-38.079S1176.255,423.482,1178.594,447.878Z" transform="translate(-1054.04 -428)"/>
      <g id="Group_20" data-name="Group 20" transform="translate(32.527 102.221)">
        <rect id="Rectangle_4" data-name="Rectangle 4" class="cls-12" width="58.533" height="5.81" transform="translate(32.196 32.529)"/>
        <path id="Path_159" data-name="Path 159" class="cls-13" d="M1093.965,521.992h37.16L1152,560.33h-37.16Z" transform="translate(-1093.965 -521.992)"/>
        <path id="Path_160" data-name="Path 160" class="cls-14" d="M1122.428,540.179c1.013,2.592.41,4.692-1.346,4.692s-4-2.1-5.014-4.692-.409-4.692,1.347-4.692S1121.416,537.588,1122.428,540.179Z" transform="translate(-1092.073 -520.81)"/>
        <path id="Path_161" data-name="Path 161" class="cls-15" d="M1114.062,558.907h37.161l-5.1-9.376c-18.813,2.942-34.066-4.72-43.3-11.281Z" transform="translate(-1093.19 -520.568)"/>
      </g>
      <path id="Path_162" data-name="Path 162" class="cls-16" d="M1194.3,601.969h8.438l-3.956,3.57Z" transform="translate(-1052.653 -412.769)"/>
      <path id="Path_163" data-name="Path 163" class="cls-17" d="M1224.947,628.519h8.438l-3.956,3.57Z" transform="translate(-1049.97 -410.445)"/>
      <path id="Path_164" data-name="Path 164" class="cls-16" d="M1233.3,605.252h13.252l-6.213,5.606Z" transform="translate(-1049.239 -412.482)"/>
      <path id="Path_165" data-name="Path 165" class="cls-17" d="M1187.034,631.609h13.252l-6.213,5.607Z" transform="translate(-1053.29 -410.174)"/>
      <path id="Path_166" data-name="Path 166" class="cls-16" d="M1170.9,593.829h10.952l-5.135,4.634Z" transform="translate(-1054.703 -413.482)"/>
      <path id="Path_167" data-name="Path 167" class="cls-17" d="M1250.327,638.154h10.952l-5.135,4.634Z" transform="translate(-1047.749 -409.601)"/>
      <path id="Path_168" data-name="Path 168" class="cls-7" d="M1201.664,488.186s1.3,19.763,3.069,29.387c1.386,7.529-4.978,13.107-11.815,16.429-.313,2.471-1.106,7.206-2.095,11.788,10.915-2.182,31.542-6.512,31.583-8.089.056-2.144,3.349-23.419,1.829-27.978S1203.914,487.926,1201.664,488.186Z" transform="translate(-1052.958 -422.731)"/>
      <path id="Path_169" data-name="Path 169" class="cls-7" d="M1230.334,524.015c.03-.431.065-.865.1-1.3-2.9-.536-5.837-.96-6.253-.582-.859.78-21.5,24.123-28.1,27.217,0,0,24.91-4.793,28.1-2.9,2.947,1.752,8.319,14.293,6.816,23.138a34.575,34.575,0,0,0,5.663-1.605C1237.469,560.933,1228.977,543.283,1230.334,524.015Z" transform="translate(-1052.498 -419.771)"/>
      <path id="Path_170" data-name="Path 170" class="cls-6" d="M1232.326,506.605c-.749-5.971-1.634-11.782-2.659-17.589a12.867,12.867,0,1,0-24.808,6.543c1.767,5.169,3.421,10.39,4.9,15.525a137.62,137.62,0,0,1,3.325,13.865c.236,1.147.359,2.17.481,3.188a25,25,0,0,1,.244,2.743l.05.633a1.384,1.384,0,0,0-.017.26l.032.262a21.493,21.493,0,0,1-3.376,1.975,65.5,65.5,0,0,1-6.373,2.562c-4.521,1.562-9.33,2.875-14.2,4.044-9.751,2.321-19.86,4.164-29.869,5.616l.488,8.6c10.513.115,20.886-.14,31.461-.966,5.284-.425,10.595-1,16.043-1.974a82.622,82.622,0,0,0,8.375-1.934,33.735,33.735,0,0,0,9.442-4.255c1.811-1.471,3.915-2.861,5.609-6.659a10.286,10.286,0,0,0,.65-1.83l.445-1.605.4-1.624.174-1.291a40.7,40.7,0,0,0,.438-4.958c.066-1.555.11-3.1.05-4.51A156.359,156.359,0,0,0,1232.326,506.605Z" transform="translate(-1055.652 -423.583)"/>
      <path id="Path_171" data-name="Path 171" class="cls-18" d="M1208.81,445.387c-1.228-4.917-4.845-4.917-12.51-.723-5.787,3.167-13.959.316-17.8-1.4a26.275,26.275,0,0,0,.1,3.419s.391,2.418,13.191,1.864c4.282-.776,3.807,5.6,5.1,10.054.973,3.361,2.535-1.889,5.614-6.208s6.038,3.918,2.163,6.377,3.015,12.88-8.593,17.468c5.01,2.276,16.253-1.008,24.447-7.281,3.635-2.784,3.544-9.415,1.8-16.452C1216.524,458.487,1210,450.14,1208.81,445.387Z" transform="translate(-1054.039 -426.809)"/>
      <path id="Path_172" data-name="Path 172" class="cls-19" d="M1160.376,600.89V606a11.571,11.571,0,0,0,4.929,9.468c-4.1-12.061.688-17.275,6.511-17.275h96.077v-8.914h-95.912A11.605,11.605,0,0,0,1160.376,600.89Z" transform="translate(-1055.624 -413.88)"/>
      <path id="Path_173" data-name="Path 173" class="cls-20" d="M1270.073,623.253H1174.16v5.727h93.787c4.955,0,11.638,5.478,12.147,12.2a11.481,11.481,0,0,0,1.584-5.756v-.57A11.605,11.605,0,0,0,1270.073,623.253Z" transform="translate(-1054.417 -410.906)"/>
    </g>
    <path id="Path_138" data-name="Path 138" class="cls-21" d="M1228.39,636.582c-34.172,0-63.118,3.262-73.108,7.771-9.156-3.073-30.1-5.226-54.5-5.226-32.827,0-59.438,3.891-59.438,8.69s26.611,8.691,59.438,8.691c24.4,0,45.342-2.152,54.5-5.227,9.99,4.51,38.937,7.772,73.108,7.772,42.441,0,76.846-5.03,76.846-11.235S1270.831,636.582,1228.39,636.582Z" transform="translate(2310.731 -1574.597)"/>
  </g>
</svg>
